<svg xmlns="http://www.w3.org/2000/svg" xmlns:xlink="http://www.w3.org/1999/xlink" width="1133" zoomAndPan="magnify" viewBox="0 0 850.5 567.000005" height="755" preserveAspectRatio="xMidYMid meet" version="1.0"><defs><filter x="0%" y="0%" width="100%" height="100%" id="277481e58c"><feColorMatrix values="0 0 0 0 1 0 0 0 0 1 0 0 0 0 1 0 0 0 1 0" color-interpolation-filters="sRGB"/></filter><g/><mask id="bc82cba662"><g filter="url(#277481e58c)"><rect x="-85.05" width="1020.6" fill="#000000" y="-56.700001" height="680.400006" fill-opacity="0.8"/></g></mask><clipPath id="130c085c5d"><rect x="0" width="291" y="0" height="140"/></clipPath><mask id="2be24fbe15"><g filter="url(#277481e58c)"><rect x="-85.05" width="1020.6" fill="#000000" y="-56.700001" height="680.400006" fill-opacity="0.8"/></g></mask><clipPath id="633e2be134"><path d="M 0.394531 63 L 1 63 L 1 64 L 0.394531 64 Z M 0.394531 63 " clip-rule="nonzero"/></clipPath><clipPath id="6cff9bd0fa"><rect x="0" width="292" y="0" height="79"/></clipPath><clipPath id="9cdea0a08f"><path d="M 0.5 0 L 767 0 L 767 564 L 0.5 564 Z M 0.5 0 " clip-rule="nonzero"/></clipPath><mask id="67a5aba42c"><g filter="url(#277481e58c)"><rect x="-85.05" width="1020.6" fill="#000000" y="-56.700001" height="680.400006" fill-opacity="0.8"/></g></mask><mask id="44545044a7"><g filter="url(#277481e58c)"><rect x="-187.11" width="1224.72" fill="#000000" y="-124.740001" height="816.480007" fill-opacity="0.6"/></g></mask><clipPath id="136874fbba"><path d="M 33 0.972656 L 168.296875 0.972656 L 168.296875 145 L 33 145 Z M 33 0.972656 " clip-rule="nonzero"/></clipPath><clipPath id="1ce1ed38bf"><path d="M 106.050781 178.117188 L 0.566406 53.722656 L 62.765625 0.980469 L 168.25 125.375 Z M 106.050781 178.117188 " clip-rule="nonzero"/></clipPath><clipPath id="2d9e97091f"><path d="M 106.050781 178.117188 L 0.566406 53.722656 L 62.765625 0.980469 L 168.25 125.375 Z M 106.050781 178.117188 " clip-rule="nonzero"/></clipPath><clipPath id="91c42dcee3"><path d="M 106.050781 178.117188 L 0.566406 53.722656 L 62.765625 0.980469 L 168.25 125.375 Z M 106.050781 178.117188 " clip-rule="nonzero"/></clipPath><clipPath id="6c2be37911"><rect x="0" width="169" y="0" height="179"/></clipPath><clipPath id="84e288116a"><path d="M 120.851562 145.929688 L 426.539062 145.929688 L 426.539062 451.617188 L 120.851562 451.617188 Z M 120.851562 145.929688 " clip-rule="nonzero"/></clipPath><clipPath id="6c2d89ec09"><path d="M 159.820312 145.234375 L 427.234375 145.234375 L 427.234375 412.648438 L 159.820312 412.648438 Z M 159.820312 145.234375 " clip-rule="nonzero"/></clipPath><clipPath id="1b6f5500dc"><path d="M 146.910156 146.003906 L 426.46875 146.003906 L 426.46875 190.308594 L 146.910156 190.308594 Z M 146.910156 146.003906 " clip-rule="nonzero"/></clipPath><clipPath id="79bd85d6ae"><path d="M 382.160156 190.308594 L 426.46875 190.308594 L 426.46875 412.648438 L 382.160156 412.648438 Z M 382.160156 190.308594 " clip-rule="nonzero"/></clipPath><clipPath id="cb80636d89"><path d="M 339.601562 146.066406 L 426.40625 146.066406 L 426.40625 232.808594 L 339.601562 232.808594 Z M 339.601562 146.066406 " clip-rule="nonzero"/></clipPath><clipPath id="ce34009ba5"><path d="M 0.5 0 L 766.1875 0 L 766.1875 563.007812 L 0.5 563.007812 Z M 0.5 0 " clip-rule="nonzero"/></clipPath><mask id="a60ddd62f4"><g filter="url(#277481e58c)"><rect x="-187.11" width="1224.72" fill="#000000" y="-124.740001" height="816.480007" fill-opacity="0.21"/></g></mask><clipPath id="9a1dc69ea8"><rect x="0" width="767" y="0" height="564"/></clipPath><clipPath id="e60baf5e59"><rect x="0" width="767" y="0" height="564"/></clipPath></defs><g mask="url(#bc82cba662)"><g transform="matrix(1, 0, 0, 1, 446, 358)"><g clip-path="url(#130c085c5d)"><g fill="#ffffff" fill-opacity="1"><g transform="translate(0.928921, 113.200265)"><g><path d="M 3.28125 -13.6875 C 3.28125 -19.300781 5.453125 -23.203125 9.796875 -25.390625 C 14.140625 -27.585938 20.472656 -28.6875 28.796875 -28.6875 L 34.375 -28.6875 L 34.375 -31.3125 C 34.375 -35.320312 33.316406 -38.804688 31.203125 -41.765625 C 29.085938 -44.722656 25.835938 -46.203125 21.453125 -46.203125 C 18.535156 -46.203125 15.890625 -45.671875 13.515625 -44.609375 C 11.148438 -43.546875 9.894531 -43.015625 9.75 -43.015625 C 8.863281 -43.015625 8.164062 -43.414062 7.65625 -44.21875 C 7.144531 -45.019531 6.890625 -45.898438 6.890625 -46.859375 C 6.890625 -48.242188 8.457031 -49.519531 11.59375 -50.6875 C 14.738281 -51.851562 18.097656 -52.4375 21.671875 -52.4375 C 28.535156 -52.4375 33.550781 -50.445312 36.71875 -46.46875 C 39.894531 -42.488281 41.484375 -37.4375 41.484375 -31.3125 L 41.484375 -2.84375 C 41.484375 -2.039062 41.15625 -1.363281 40.5 -0.8125 C 39.84375 -0.269531 39.003906 0 37.984375 0 C 37.035156 0 36.25 -0.269531 35.625 -0.8125 C 35.007812 -1.363281 34.703125 -2.039062 34.703125 -2.84375 L 34.703125 -7.65625 C 29.804688 -2.039062 24.296875 0.765625 18.171875 0.765625 C 13.796875 0.765625 10.21875 -0.453125 7.4375 -2.890625 C 4.664062 -5.335938 3.28125 -8.9375 3.28125 -13.6875 Z M 10.40625 -14.34375 C 10.40625 -11.28125 11.28125 -9 13.03125 -7.5 C 14.78125 -6 17.078125 -5.25 19.921875 -5.25 C 23.347656 -5.25 26.613281 -6.523438 29.71875 -9.078125 C 32.820312 -11.640625 34.375 -14.195312 34.375 -16.75 L 34.375 -23.75 L 29.78125 -23.75 C 26.851562 -23.75 24.382812 -23.640625 22.375 -23.421875 C 20.375 -23.203125 18.390625 -22.800781 16.421875 -22.21875 C 14.453125 -21.632812 12.957031 -20.6875 11.9375 -19.375 C 10.914062 -18.0625 10.40625 -16.382812 10.40625 -14.34375 Z M 10.40625 -14.34375 "/></g></g></g><g fill="#ffffff" fill-opacity="1"><g transform="translate(48.877151, 113.200265)"><g/></g></g><g fill="#ffffff" fill-opacity="1"><g transform="translate(70.771308, 113.200265)"><g><path d="M 3.609375 -7.109375 C 3.609375 -7.835938 3.863281 -8.566406 4.375 -9.296875 C 4.882812 -10.035156 5.46875 -10.40625 6.125 -10.40625 C 6.632812 -10.40625 7.4375 -9.984375 8.53125 -9.140625 C 9.632812 -8.296875 11.207031 -7.4375 13.25 -6.5625 C 15.289062 -5.6875 17.734375 -5.25 20.578125 -5.25 C 24.441406 -5.25 27.285156 -5.976562 29.109375 -7.4375 C 30.941406 -8.90625 31.859375 -10.769531 31.859375 -13.03125 C 31.859375 -15.65625 30.925781 -17.75 29.0625 -19.3125 C 27.195312 -20.882812 24.953125 -22.035156 22.328125 -22.765625 C 19.703125 -23.492188 17.054688 -24.296875 14.390625 -25.171875 C 11.734375 -26.046875 9.472656 -27.488281 7.609375 -29.5 C 5.742188 -31.507812 4.8125 -34.191406 4.8125 -37.546875 C 4.8125 -41.554688 6.253906 -45.039062 9.140625 -48 C 12.023438 -50.957031 16.347656 -52.4375 22.109375 -52.4375 C 25.691406 -52.4375 29.03125 -51.867188 32.125 -50.734375 C 35.226562 -49.609375 36.78125 -48.390625 36.78125 -47.078125 C 36.78125 -46.347656 36.488281 -45.539062 35.90625 -44.65625 C 35.320312 -43.78125 34.628906 -43.34375 33.828125 -43.34375 C 33.609375 -43.34375 32.253906 -43.851562 29.765625 -44.875 C 27.285156 -45.90625 24.769531 -46.421875 22.21875 -46.421875 C 18.570312 -46.421875 15.835938 -45.539062 14.015625 -43.78125 C 12.191406 -42.03125 11.28125 -40.0625 11.28125 -37.875 C 11.28125 -35.613281 12.207031 -33.828125 14.0625 -32.515625 C 15.925781 -31.203125 18.1875 -30.195312 20.84375 -29.5 C 23.507812 -28.8125 26.175781 -28.007812 28.84375 -27.09375 C 31.507812 -26.175781 33.769531 -24.566406 35.625 -22.265625 C 37.488281 -19.972656 38.421875 -17.003906 38.421875 -13.359375 C 38.421875 -8.972656 36.867188 -5.519531 33.765625 -3 C 30.671875 -0.488281 26.347656 0.765625 20.796875 0.765625 C 15.984375 0.765625 11.914062 -0.0859375 8.59375 -1.796875 C 5.269531 -3.515625 3.609375 -5.285156 3.609375 -7.109375 Z M 3.609375 -7.109375 "/></g></g></g><g fill="#ffffff" fill-opacity="1"><g transform="translate(112.917571, 113.200265)"><g><path d="M 4.921875 -20.03125 L 4.921875 -32.296875 C 4.921875 -37.765625 6.960938 -42.488281 11.046875 -46.46875 C 15.140625 -50.445312 20.066406 -52.4375 25.828125 -52.4375 C 31.378906 -52.4375 36.179688 -50.535156 40.234375 -46.734375 C 44.285156 -42.941406 46.3125 -38.203125 46.3125 -32.515625 C 46.3125 -30.472656 46.070312 -28.828125 45.59375 -27.578125 C 45.113281 -26.335938 44.34375 -25.460938 43.28125 -24.953125 C 42.226562 -24.441406 41.265625 -24.113281 40.390625 -23.96875 C 39.515625 -23.820312 38.3125 -23.75 36.78125 -23.75 L 12.046875 -23.75 L 12.046875 -19.703125 C 12.046875 -15.398438 13.59375 -11.953125 16.6875 -9.359375 C 19.789062 -6.765625 23.789062 -5.46875 28.6875 -5.46875 C 31.164062 -5.46875 33.332031 -5.832031 35.1875 -6.5625 C 37.050781 -7.289062 38.472656 -8.019531 39.453125 -8.75 C 40.441406 -9.488281 41.226562 -9.859375 41.8125 -9.859375 C 42.613281 -9.859375 43.320312 -9.472656 43.9375 -8.703125 C 44.5625 -7.929688 44.875 -7.179688 44.875 -6.453125 C 44.875 -4.921875 43.304688 -3.332031 40.171875 -1.6875 C 37.035156 -0.0507812 33.132812 0.765625 28.46875 0.765625 C 21.53125 0.765625 15.867188 -1.148438 11.484375 -4.984375 C 7.109375 -8.816406 4.921875 -13.832031 4.921875 -20.03125 Z M 12.046875 -29.015625 L 33.9375 -29.015625 C 36.125 -29.015625 37.582031 -29.25 38.3125 -29.71875 C 39.039062 -30.195312 39.40625 -31.203125 39.40625 -32.734375 C 39.40625 -36.378906 38.109375 -39.585938 35.515625 -42.359375 C 32.929688 -45.140625 29.664062 -46.53125 25.71875 -46.53125 C 21.925781 -46.53125 18.695312 -45.210938 16.03125 -42.578125 C 13.375 -39.953125 12.046875 -36.816406 12.046875 -33.171875 Z M 17.40625 -67.765625 C 17.40625 -68.710938 17.804688 -69.367188 18.609375 -69.734375 L 30.875 -76.40625 C 31.09375 -76.625 31.382812 -76.734375 31.75 -76.734375 C 32.550781 -76.734375 33.1875 -76.421875 33.65625 -75.796875 C 34.132812 -75.179688 34.375 -74.472656 34.375 -73.671875 C 34.375 -72.503906 33.9375 -71.703125 33.0625 -71.265625 L 21.34375 -65.03125 C 20.976562 -64.8125 20.613281 -64.703125 20.25 -64.703125 C 19.519531 -64.703125 18.863281 -65.007812 18.28125 -65.625 C 17.695312 -66.25 17.40625 -66.960938 17.40625 -67.765625 Z M 17.40625 -67.765625 "/></g></g></g><g fill="#ffffff" fill-opacity="1"><g transform="translate(163.055212, 113.200265)"><g><path d="M 6.890625 -2.84375 L 6.890625 -49.15625 C 6.890625 -49.882812 7.21875 -50.503906 7.875 -51.015625 C 8.53125 -51.523438 9.375 -51.78125 10.40625 -51.78125 C 11.351562 -51.78125 12.15625 -51.523438 12.8125 -51.015625 C 13.46875 -50.503906 13.796875 -49.882812 13.796875 -49.15625 L 13.796875 -43.78125 C 15.109375 -46.195312 17.039062 -48.242188 19.59375 -49.921875 C 22.144531 -51.597656 25.101562 -52.4375 28.46875 -52.4375 L 32.296875 -52.4375 C 33.023438 -52.4375 33.679688 -52.109375 34.265625 -51.453125 C 34.847656 -50.796875 35.140625 -50.03125 35.140625 -49.15625 C 35.140625 -48.28125 34.847656 -47.515625 34.265625 -46.859375 C 33.679688 -46.203125 33.023438 -45.875 32.296875 -45.875 L 28.46875 -45.875 C 24.664062 -45.875 21.304688 -44.394531 18.390625 -41.4375 C 15.472656 -38.476562 14.015625 -34.628906 14.015625 -29.890625 L 14.015625 -2.84375 C 14.015625 -2.113281 13.664062 -1.457031 12.96875 -0.875 C 12.28125 -0.289062 11.425781 0 10.40625 0 C 9.445312 0 8.617188 -0.289062 7.921875 -0.875 C 7.234375 -1.457031 6.890625 -2.113281 6.890625 -2.84375 Z M 6.890625 -2.84375 "/></g></g></g><g fill="#ffffff" fill-opacity="1"><g transform="translate(199.290058, 113.200265)"><g><path d="M 6.890625 -68.46875 C 5.941406 -69.382812 5.46875 -70.460938 5.46875 -71.703125 C 5.46875 -72.941406 5.941406 -74 6.890625 -74.875 C 7.835938 -75.75 9.007812 -76.1875 10.40625 -76.1875 C 11.71875 -76.1875 12.828125 -75.75 13.734375 -74.875 C 14.648438 -74 15.109375 -72.941406 15.109375 -71.703125 C 15.109375 -70.460938 14.648438 -69.382812 13.734375 -68.46875 C 12.828125 -67.5625 11.71875 -67.109375 10.40625 -67.109375 C 9.007812 -67.109375 7.835938 -67.5625 6.890625 -68.46875 Z M 6.890625 -2.84375 L 6.890625 -49.15625 C 6.890625 -49.882812 7.21875 -50.503906 7.875 -51.015625 C 8.53125 -51.523438 9.367188 -51.78125 10.390625 -51.78125 C 11.421875 -51.78125 12.28125 -51.523438 12.96875 -51.015625 C 13.664062 -50.503906 14.015625 -49.882812 14.015625 -49.15625 L 14.015625 -2.84375 C 14.015625 -2.113281 13.648438 -1.457031 12.921875 -0.875 C 12.191406 -0.289062 11.347656 0 10.390625 0 C 9.441406 0 8.617188 -0.289062 7.921875 -0.875 C 7.234375 -1.457031 6.890625 -2.113281 6.890625 -2.84375 Z M 6.890625 -2.84375 "/></g></g></g><g fill="#ffffff" fill-opacity="1"><g transform="translate(220.199001, 113.200265)"><g><path d="M 4.8125 -20.03125 L 4.8125 -31.96875 C 4.8125 -37.507812 6.851562 -42.304688 10.9375 -46.359375 C 15.03125 -50.410156 19.882812 -52.4375 25.5 -52.4375 C 31.125 -52.4375 36.015625 -50.425781 40.171875 -46.40625 C 44.335938 -42.394531 46.421875 -37.582031 46.421875 -31.96875 L 46.421875 -20.03125 C 46.421875 -14.5625 44.320312 -9.726562 40.125 -5.53125 C 35.925781 -1.332031 31.050781 0.765625 25.5 0.765625 C 20.03125 0.765625 15.210938 -1.332031 11.046875 -5.53125 C 6.890625 -9.726562 4.8125 -14.5625 4.8125 -20.03125 Z M 11.9375 -20.03125 C 11.9375 -16.3125 13.265625 -13.007812 15.921875 -10.125 C 18.585938 -7.238281 21.78125 -5.796875 25.5 -5.796875 C 29.300781 -5.796875 32.550781 -7.238281 35.25 -10.125 C 37.945312 -13.007812 39.296875 -16.3125 39.296875 -20.03125 L 39.296875 -31.96875 C 39.296875 -35.539062 37.925781 -38.75 35.1875 -41.59375 C 32.457031 -44.445312 29.226562 -45.875 25.5 -45.875 C 21.78125 -45.875 18.585938 -44.445312 15.921875 -41.59375 C 13.265625 -38.75 11.9375 -35.539062 11.9375 -31.96875 Z M 11.9375 -20.03125 "/></g></g></g><g fill="#ffffff" fill-opacity="1"><g transform="translate(271.431346, 113.200265)"><g><path d="M 4.375 -4.375 C 4.375 -5.832031 4.847656 -7.054688 5.796875 -8.046875 C 6.742188 -9.035156 7.953125 -9.53125 9.421875 -9.53125 C 10.734375 -9.53125 11.878906 -9.015625 12.859375 -7.984375 C 13.847656 -6.960938 14.34375 -5.757812 14.34375 -4.375 C 14.34375 -3.0625 13.847656 -1.894531 12.859375 -0.875 C 11.878906 0.144531 10.734375 0.65625 9.421875 0.65625 C 7.953125 0.65625 6.742188 0.164062 5.796875 -0.8125 C 4.847656 -1.800781 4.375 -2.988281 4.375 -4.375 Z M 4.375 -4.375 "/></g></g></g></g></g></g><g mask="url(#2be24fbe15)"><g transform="matrix(1, 0, 0, 1, 445, 70)"><g clip-path="url(#6cff9bd0fa)"><g clip-path="url(#633e2be134)"><g fill="#ffffff" fill-opacity="1"><g transform="translate(0.577383, 63.312883)"><g/></g></g></g><g fill="#ffffff" fill-opacity="1"><g transform="translate(12.884344, 63.312883)"><g><path d="M 1.84375 -7.6875 C 1.84375 -10.84375 3.0625 -13.035156 5.5 -14.265625 C 7.945312 -15.492188 11.503906 -16.109375 16.171875 -16.109375 L 19.3125 -16.109375 L 19.3125 -17.59375 C 19.3125 -19.851562 18.71875 -21.8125 17.53125 -23.46875 C 16.34375 -25.125 14.519531 -25.953125 12.0625 -25.953125 C 10.414062 -25.953125 8.925781 -25.65625 7.59375 -25.0625 C 6.257812 -24.46875 5.550781 -24.171875 5.46875 -24.171875 C 4.976562 -24.171875 4.585938 -24.394531 4.296875 -24.84375 C 4.015625 -25.300781 3.875 -25.796875 3.875 -26.328125 C 3.875 -27.109375 4.753906 -27.828125 6.515625 -28.484375 C 8.285156 -29.140625 10.175781 -29.46875 12.1875 -29.46875 C 16.039062 -29.46875 18.859375 -28.347656 20.640625 -26.109375 C 22.421875 -23.878906 23.3125 -21.039062 23.3125 -17.59375 L 23.3125 -1.59375 C 23.3125 -1.144531 23.125 -0.765625 22.75 -0.453125 C 22.382812 -0.148438 21.914062 0 21.34375 0 C 20.8125 0 20.367188 -0.148438 20.015625 -0.453125 C 19.671875 -0.765625 19.5 -1.144531 19.5 -1.59375 L 19.5 -4.3125 C 16.75 -1.144531 13.65625 0.4375 10.21875 0.4375 C 7.75 0.4375 5.734375 -0.25 4.171875 -1.625 C 2.617188 -3 1.84375 -5.019531 1.84375 -7.6875 Z M 5.84375 -8.0625 C 5.84375 -6.332031 6.332031 -5.046875 7.3125 -4.203125 C 8.300781 -3.367188 9.597656 -2.953125 11.203125 -2.953125 C 13.128906 -2.953125 14.960938 -3.671875 16.703125 -5.109375 C 18.441406 -6.546875 19.3125 -7.976562 19.3125 -9.40625 L 19.3125 -13.34375 L 16.734375 -13.34375 C 15.085938 -13.34375 13.703125 -13.28125 12.578125 -13.15625 C 11.453125 -13.039062 10.332031 -12.816406 9.21875 -12.484375 C 8.113281 -12.160156 7.273438 -11.628906 6.703125 -10.890625 C 6.128906 -10.148438 5.84375 -9.207031 5.84375 -8.0625 Z M 5.84375 -8.0625 "/></g></g></g><g fill="#ffffff" fill-opacity="1"><g transform="translate(39.826895, 63.312883)"><g/></g></g><g fill="#ffffff" fill-opacity="1"><g transform="translate(52.129429, 63.312883)"><g><path d="M 1.53125 6.09375 C 1.53125 3.007812 3.273438 0.773438 6.765625 -0.609375 C 4.515625 -1.390625 3.390625 -2.804688 3.390625 -4.859375 C 3.390625 -6.703125 4.410156 -8.175781 6.453125 -9.28125 C 4.203125 -11.175781 3.078125 -13.765625 3.078125 -17.046875 L 3.078125 -19.375 C 3.078125 -22.375 4.050781 -24.804688 6 -26.671875 C 7.945312 -28.535156 10.5 -29.46875 13.65625 -29.46875 C 16.53125 -29.46875 18.929688 -28.601562 20.859375 -26.875 C 21.472656 -28.070312 22.164062 -29.015625 22.9375 -29.703125 C 23.71875 -30.398438 24.476562 -30.75 25.21875 -30.75 C 25.789062 -30.75 26.238281 -30.585938 26.5625 -30.265625 C 26.894531 -29.941406 27.0625 -29.570312 27.0625 -29.15625 C 27.0625 -28.414062 26.710938 -27.96875 26.015625 -27.8125 C 24.585938 -27.519531 23.441406 -26.632812 22.578125 -25.15625 C 23.722656 -23.644531 24.296875 -21.71875 24.296875 -19.375 L 24.296875 -17.046875 C 24.296875 -14.085938 23.289062 -11.644531 21.28125 -9.71875 C 19.269531 -7.789062 16.707031 -6.828125 13.59375 -6.828125 C 11.914062 -6.828125 10.335938 -7.175781 8.859375 -7.875 C 7.585938 -7.175781 6.953125 -6.375 6.953125 -5.46875 C 6.953125 -4.613281 7.421875 -3.957031 8.359375 -3.5 C 9.304688 -3.050781 10.488281 -2.765625 11.90625 -2.640625 C 13.320312 -2.515625 14.859375 -2.316406 16.515625 -2.046875 C 18.179688 -1.785156 19.71875 -1.453125 21.125 -1.046875 C 22.539062 -0.640625 23.71875 0.113281 24.65625 1.21875 C 25.601562 2.332031 26.078125 3.769531 26.078125 5.53125 C 26.078125 8.320312 24.96875 10.472656 22.75 11.984375 C 20.539062 13.503906 17.632812 14.265625 14.03125 14.265625 C 10.332031 14.265625 7.320312 13.523438 5 12.046875 C 2.6875 10.578125 1.53125 8.59375 1.53125 6.09375 Z M 5.40625 5.71875 C 5.40625 7.40625 6.175781 8.757812 7.71875 9.78125 C 9.257812 10.800781 11.34375 11.3125 13.96875 11.3125 C 16.550781 11.3125 18.566406 10.800781 20.015625 9.78125 C 21.472656 8.757812 22.203125 7.382812 22.203125 5.65625 C 22.203125 4.832031 22 4.113281 21.59375 3.5 C 21.1875 2.882812 20.703125 2.410156 20.140625 2.078125 C 19.585938 1.753906 18.859375 1.46875 17.953125 1.21875 C 17.054688 0.976562 16.269531 0.816406 15.59375 0.734375 C 14.914062 0.648438 14.066406 0.566406 13.046875 0.484375 L 10.890625 0.25 C 7.234375 1.394531 5.40625 3.21875 5.40625 5.71875 Z M 6.953125 -17.09375 C 6.953125 -14.96875 7.554688 -13.226562 8.765625 -11.875 C 9.972656 -10.519531 11.625 -9.84375 13.71875 -9.84375 C 15.726562 -9.84375 17.335938 -10.519531 18.546875 -11.875 C 19.753906 -13.226562 20.359375 -14.953125 20.359375 -17.046875 L 20.359375 -19.375 C 20.359375 -21.425781 19.753906 -23.117188 18.546875 -24.453125 C 17.335938 -25.785156 15.707031 -26.453125 13.65625 -26.453125 C 11.601562 -26.453125 9.972656 -25.785156 8.765625 -24.453125 C 7.554688 -23.117188 6.953125 -21.425781 6.953125 -19.375 Z M 6.953125 -17.09375 "/></g></g></g><g fill="#ffffff" fill-opacity="1"><g transform="translate(79.933158, 63.312883)"><g><path d="M 2.765625 -11.25 L 2.765625 -18.140625 C 2.765625 -21.222656 3.910156 -23.878906 6.203125 -26.109375 C 8.503906 -28.347656 11.273438 -29.46875 14.515625 -29.46875 C 17.628906 -29.46875 20.320312 -28.398438 22.59375 -26.265625 C 24.875 -24.128906 26.015625 -21.460938 26.015625 -18.265625 C 26.015625 -17.117188 25.878906 -16.195312 25.609375 -15.5 C 25.347656 -14.800781 24.921875 -14.304688 24.328125 -14.015625 C 23.734375 -13.734375 23.191406 -13.550781 22.703125 -13.46875 C 22.210938 -13.382812 21.535156 -13.34375 20.671875 -13.34375 L 6.765625 -13.34375 L 6.765625 -11.078125 C 6.765625 -8.648438 7.632812 -6.707031 9.375 -5.25 C 11.125 -3.800781 13.367188 -3.078125 16.109375 -3.078125 C 17.503906 -3.078125 18.722656 -3.28125 19.765625 -3.6875 C 20.816406 -4.101562 21.617188 -4.515625 22.171875 -4.921875 C 22.722656 -5.328125 23.164062 -5.53125 23.5 -5.53125 C 23.945312 -5.53125 24.34375 -5.316406 24.6875 -4.890625 C 25.039062 -4.460938 25.21875 -4.039062 25.21875 -3.625 C 25.21875 -2.769531 24.335938 -1.878906 22.578125 -0.953125 C 20.816406 -0.0234375 18.625 0.4375 16 0.4375 C 12.101562 0.4375 8.921875 -0.640625 6.453125 -2.796875 C 3.992188 -4.953125 2.765625 -7.769531 2.765625 -11.25 Z M 6.765625 -16.296875 L 19.0625 -16.296875 C 20.300781 -16.296875 21.125 -16.425781 21.53125 -16.6875 C 21.9375 -16.957031 22.140625 -17.523438 22.140625 -18.390625 C 22.140625 -20.441406 21.410156 -22.242188 19.953125 -23.796875 C 18.503906 -25.359375 16.671875 -26.140625 14.453125 -26.140625 C 12.316406 -26.140625 10.5 -25.398438 9 -23.921875 C 7.507812 -22.453125 6.765625 -20.691406 6.765625 -18.640625 Z M 6.765625 -16.296875 "/></g></g></g><g fill="#ffffff" fill-opacity="1"><g transform="translate(108.10596, 63.312883)"><g><path d="M 3.875 -1.59375 L 3.875 -27.625 C 3.875 -28.070312 4.054688 -28.425781 4.421875 -28.6875 C 4.796875 -28.957031 5.269531 -29.09375 5.84375 -29.09375 C 6.332031 -29.09375 6.757812 -28.945312 7.125 -28.65625 C 7.5 -28.375 7.6875 -28.03125 7.6875 -27.625 L 7.6875 -24.796875 C 8.382812 -26.109375 9.453125 -27.210938 10.890625 -28.109375 C 12.328125 -29.015625 14.007812 -29.46875 15.9375 -29.46875 C 18.882812 -29.46875 21.441406 -28.335938 23.609375 -26.078125 C 25.785156 -23.828125 26.875 -21.125 26.875 -17.96875 L 26.875 -1.59375 C 26.875 -1.101562 26.671875 -0.710938 26.265625 -0.421875 C 25.859375 -0.140625 25.390625 0 24.859375 0 C 24.359375 0 23.90625 -0.140625 23.5 -0.421875 C 23.09375 -0.710938 22.890625 -1.101562 22.890625 -1.59375 L 22.890625 -17.96875 C 22.890625 -19.976562 22.128906 -21.78125 20.609375 -23.375 C 19.085938 -24.976562 17.28125 -25.78125 15.1875 -25.78125 C 13.257812 -25.78125 11.554688 -25.0625 10.078125 -23.625 C 8.609375 -22.1875 7.875 -20.300781 7.875 -17.96875 L 7.875 -1.59375 C 7.875 -1.1875 7.664062 -0.816406 7.25 -0.484375 C 6.84375 -0.160156 6.375 0 5.84375 0 C 5.269531 0 4.796875 -0.160156 4.421875 -0.484375 C 4.054688 -0.816406 3.875 -1.1875 3.875 -1.59375 Z M 3.875 -1.59375 "/></g></g></g><g fill="#ffffff" fill-opacity="1"><g transform="translate(138.616245, 63.312883)"><g><path d="M 3.75 -9.046875 L 3.75 -41.46875 C 3.75 -41.875 3.953125 -42.21875 4.359375 -42.5 C 4.773438 -42.789062 5.226562 -42.9375 5.71875 -42.9375 C 6.25 -42.9375 6.71875 -42.789062 7.125 -42.5 C 7.539062 -42.21875 7.75 -41.875 7.75 -41.46875 L 7.75 -29.09375 L 15.6875 -29.09375 C 16.09375 -29.09375 16.425781 -28.925781 16.6875 -28.59375 C 16.957031 -28.269531 17.09375 -27.882812 17.09375 -27.4375 C 17.09375 -26.988281 16.957031 -26.597656 16.6875 -26.265625 C 16.425781 -25.941406 16.09375 -25.78125 15.6875 -25.78125 L 7.75 -25.78125 L 7.75 -9.046875 C 7.75 -7.035156 8.164062 -5.628906 9 -4.828125 C 9.84375 -4.023438 11.332031 -3.625 13.46875 -3.625 L 15.1875 -3.625 C 15.726562 -3.625 16.171875 -3.445312 16.515625 -3.09375 C 16.867188 -2.75 17.046875 -2.332031 17.046875 -1.84375 C 17.046875 -1.351562 16.867188 -0.921875 16.515625 -0.546875 C 16.171875 -0.179688 15.726562 0 15.1875 0 L 13.46875 0 C 6.988281 0 3.75 -3.015625 3.75 -9.046875 Z M 3.75 -9.046875 "/></g></g></g><g fill="#ffffff" fill-opacity="1"><g transform="translate(156.885507, 63.312883)"><g><path d="M 2.765625 -11.25 L 2.765625 -18.140625 C 2.765625 -21.222656 3.910156 -23.878906 6.203125 -26.109375 C 8.503906 -28.347656 11.273438 -29.46875 14.515625 -29.46875 C 17.628906 -29.46875 20.320312 -28.398438 22.59375 -26.265625 C 24.875 -24.128906 26.015625 -21.460938 26.015625 -18.265625 C 26.015625 -17.117188 25.878906 -16.195312 25.609375 -15.5 C 25.347656 -14.800781 24.921875 -14.304688 24.328125 -14.015625 C 23.734375 -13.734375 23.191406 -13.550781 22.703125 -13.46875 C 22.210938 -13.382812 21.535156 -13.34375 20.671875 -13.34375 L 6.765625 -13.34375 L 6.765625 -11.078125 C 6.765625 -8.648438 7.632812 -6.707031 9.375 -5.25 C 11.125 -3.800781 13.367188 -3.078125 16.109375 -3.078125 C 17.503906 -3.078125 18.722656 -3.28125 19.765625 -3.6875 C 20.816406 -4.101562 21.617188 -4.515625 22.171875 -4.921875 C 22.722656 -5.328125 23.164062 -5.53125 23.5 -5.53125 C 23.945312 -5.53125 24.34375 -5.316406 24.6875 -4.890625 C 25.039062 -4.460938 25.21875 -4.039062 25.21875 -3.625 C 25.21875 -2.769531 24.335938 -1.878906 22.578125 -0.953125 C 20.816406 -0.0234375 18.625 0.4375 16 0.4375 C 12.101562 0.4375 8.921875 -0.640625 6.453125 -2.796875 C 3.992188 -4.953125 2.765625 -7.769531 2.765625 -11.25 Z M 6.765625 -16.296875 L 19.0625 -16.296875 C 20.300781 -16.296875 21.125 -16.425781 21.53125 -16.6875 C 21.9375 -16.957031 22.140625 -17.523438 22.140625 -18.390625 C 22.140625 -20.441406 21.410156 -22.242188 19.953125 -23.796875 C 18.503906 -25.359375 16.671875 -26.140625 14.453125 -26.140625 C 12.316406 -26.140625 10.5 -25.398438 9 -23.921875 C 7.507812 -22.453125 6.765625 -20.691406 6.765625 -18.640625 Z M 6.765625 -16.296875 "/></g></g></g><g fill="#ffffff" fill-opacity="1"><g transform="translate(185.058305, 63.312883)"><g/></g></g><g fill="#ffffff" fill-opacity="1"><g transform="translate(197.360835, 63.312883)"><g><path d="M 4.375 -1.59375 L 4.375 -45.453125 C 4.375 -45.867188 4.554688 -46.21875 4.921875 -46.5 C 5.285156 -46.789062 5.753906 -46.9375 6.328125 -46.9375 C 6.910156 -46.9375 7.394531 -46.789062 7.78125 -46.5 C 8.164062 -46.21875 8.359375 -45.867188 8.359375 -45.453125 L 8.359375 -1.59375 C 8.359375 -1.1875 8.164062 -0.816406 7.78125 -0.484375 C 7.394531 -0.160156 6.914062 0 6.34375 0 C 5.800781 0 5.335938 -0.160156 4.953125 -0.484375 C 4.566406 -0.816406 4.375 -1.1875 4.375 -1.59375 Z M 4.375 -1.59375 "/></g></g></g><g fill="#ffffff" fill-opacity="1"><g transform="translate(210.093954, 63.312883)"><g><path d="M 2.765625 -11.25 L 2.765625 -18.140625 C 2.765625 -21.222656 3.910156 -23.878906 6.203125 -26.109375 C 8.503906 -28.347656 11.273438 -29.46875 14.515625 -29.46875 C 17.628906 -29.46875 20.320312 -28.398438 22.59375 -26.265625 C 24.875 -24.128906 26.015625 -21.460938 26.015625 -18.265625 C 26.015625 -17.117188 25.878906 -16.195312 25.609375 -15.5 C 25.347656 -14.800781 24.921875 -14.304688 24.328125 -14.015625 C 23.734375 -13.734375 23.191406 -13.550781 22.703125 -13.46875 C 22.210938 -13.382812 21.535156 -13.34375 20.671875 -13.34375 L 6.765625 -13.34375 L 6.765625 -11.078125 C 6.765625 -8.648438 7.632812 -6.707031 9.375 -5.25 C 11.125 -3.800781 13.367188 -3.078125 16.109375 -3.078125 C 17.503906 -3.078125 18.722656 -3.28125 19.765625 -3.6875 C 20.816406 -4.101562 21.617188 -4.515625 22.171875 -4.921875 C 22.722656 -5.328125 23.164062 -5.53125 23.5 -5.53125 C 23.945312 -5.53125 24.34375 -5.316406 24.6875 -4.890625 C 25.039062 -4.460938 25.21875 -4.039062 25.21875 -3.625 C 25.21875 -2.769531 24.335938 -1.878906 22.578125 -0.953125 C 20.816406 -0.0234375 18.625 0.4375 16 0.4375 C 12.101562 0.4375 8.921875 -0.640625 6.453125 -2.796875 C 3.992188 -4.953125 2.765625 -7.769531 2.765625 -11.25 Z M 6.765625 -16.296875 L 19.0625 -16.296875 C 20.300781 -16.296875 21.125 -16.425781 21.53125 -16.6875 C 21.9375 -16.957031 22.140625 -17.523438 22.140625 -18.390625 C 22.140625 -20.441406 21.410156 -22.242188 19.953125 -23.796875 C 18.503906 -25.359375 16.671875 -26.140625 14.453125 -26.140625 C 12.316406 -26.140625 10.5 -25.398438 9 -23.921875 C 7.507812 -22.453125 6.765625 -20.691406 6.765625 -18.640625 Z M 6.765625 -16.296875 "/></g></g></g><g fill="#ffffff" fill-opacity="1"><g transform="translate(238.26676, 63.312883)"><g><path d="M 0.921875 -27.375 C 0.921875 -27.863281 1.175781 -28.289062 1.6875 -28.65625 C 2.195312 -29.03125 2.742188 -29.21875 3.328125 -29.21875 C 4.054688 -29.21875 4.546875 -28.910156 4.796875 -28.296875 L 12.921875 -6.15625 L 21.03125 -28.046875 C 21.363281 -28.828125 21.835938 -29.21875 22.453125 -29.21875 C 22.941406 -29.21875 23.472656 -29.03125 24.046875 -28.65625 C 24.617188 -28.289062 24.90625 -27.882812 24.90625 -27.4375 C 24.90625 -27.101562 24.828125 -26.773438 24.671875 -26.453125 L 14.765625 -0.484375 C 14.515625 0.160156 13.894531 0.484375 12.90625 0.484375 C 11.925781 0.484375 11.316406 0.160156 11.078125 -0.484375 L 1.171875 -26.453125 C 1.003906 -26.703125 0.921875 -27.007812 0.921875 -27.375 Z M 0.921875 -27.375 "/></g></g></g><g fill="#ffffff" fill-opacity="1"><g transform="translate(264.102079, 63.312883)"><g><path d="M 1.84375 -7.6875 C 1.84375 -10.84375 3.0625 -13.035156 5.5 -14.265625 C 7.945312 -15.492188 11.503906 -16.109375 16.171875 -16.109375 L 19.3125 -16.109375 L 19.3125 -17.59375 C 19.3125 -19.851562 18.71875 -21.8125 17.53125 -23.46875 C 16.34375 -25.125 14.519531 -25.953125 12.0625 -25.953125 C 10.414062 -25.953125 8.925781 -25.65625 7.59375 -25.0625 C 6.257812 -24.46875 5.550781 -24.171875 5.46875 -24.171875 C 4.976562 -24.171875 4.585938 -24.394531 4.296875 -24.84375 C 4.015625 -25.300781 3.875 -25.796875 3.875 -26.328125 C 3.875 -27.109375 4.753906 -27.828125 6.515625 -28.484375 C 8.285156 -29.140625 10.175781 -29.46875 12.1875 -29.46875 C 16.039062 -29.46875 18.859375 -28.347656 20.640625 -26.109375 C 22.421875 -23.878906 23.3125 -21.039062 23.3125 -17.59375 L 23.3125 -1.59375 C 23.3125 -1.144531 23.125 -0.765625 22.75 -0.453125 C 22.382812 -0.148438 21.914062 0 21.34375 0 C 20.8125 0 20.367188 -0.148438 20.015625 -0.453125 C 19.671875 -0.765625 19.5 -1.144531 19.5 -1.59375 L 19.5 -4.3125 C 16.75 -1.144531 13.65625 0.4375 10.21875 0.4375 C 7.75 0.4375 5.734375 -0.25 4.171875 -1.625 C 2.617188 -3 1.84375 -5.019531 1.84375 -7.6875 Z M 5.84375 -8.0625 C 5.84375 -6.332031 6.332031 -5.046875 7.3125 -4.203125 C 8.300781 -3.367188 9.597656 -2.953125 11.203125 -2.953125 C 13.128906 -2.953125 14.960938 -3.671875 16.703125 -5.109375 C 18.441406 -6.546875 19.3125 -7.976562 19.3125 -9.40625 L 19.3125 -13.34375 L 16.734375 -13.34375 C 15.085938 -13.34375 13.703125 -13.28125 12.578125 -13.15625 C 11.453125 -13.039062 10.332031 -12.816406 9.21875 -12.484375 C 8.113281 -12.160156 7.273438 -11.628906 6.703125 -10.890625 C 6.128906 -10.148438 5.84375 -9.207031 5.84375 -8.0625 Z M 5.84375 -8.0625 "/></g></g></g></g></g></g><g fill="#ffffff" fill-opacity="0.4"><g transform="translate(449.822947, 270.125157)"><g><path d="M 6.90625 -34.515625 L 6.90625 -74.296875 C 6.90625 -86.503906 10.226562 -95.457031 16.875 -101.15625 C 23.53125 -106.863281 32.210938 -109.71875 42.921875 -109.71875 C 53.929688 -109.71875 62.960938 -107.066406 70.015625 -101.765625 C 77.066406 -96.460938 80.59375 -89.15625 80.59375 -79.84375 C 80.59375 -75.539062 79.691406 -72.613281 77.890625 -71.0625 C 76.097656 -69.519531 73.097656 -68.75 68.890625 -68.75 C 61.390625 -68.75 57.488281 -71.097656 57.1875 -75.796875 C 56.882812 -84.804688 52.429688 -89.3125 43.828125 -89.3125 C 34.816406 -89.3125 30.3125 -84.304688 30.3125 -74.296875 L 30.3125 -34.515625 C 30.3125 -24.515625 34.867188 -19.515625 43.984375 -19.515625 C 46.785156 -19.515625 49.109375 -19.960938 50.953125 -20.859375 C 52.804688 -21.765625 54.132812 -23.140625 54.9375 -24.984375 C 55.738281 -26.835938 56.265625 -28.363281 56.515625 -29.5625 C 56.765625 -30.769531 56.988281 -32.421875 57.1875 -34.515625 C 57.582031 -39.222656 61.4375 -41.578125 68.75 -41.578125 C 73.050781 -41.578125 76.097656 -40.800781 77.890625 -39.25 C 79.691406 -37.695312 80.59375 -34.769531 80.59375 -30.46875 C 80.59375 -20.757812 77.066406 -13.101562 70.015625 -7.5 C 62.960938 -1.894531 53.929688 0.90625 42.921875 0.90625 C 32.210938 0.90625 23.53125 -1.941406 16.875 -7.640625 C 10.226562 -13.347656 6.90625 -22.304688 6.90625 -34.515625 Z M 6.90625 -34.515625 "/></g></g></g><g fill="#ffffff" fill-opacity="0.4"><g transform="translate(534.178868, 270.125157)"><g><path d="M 6.90625 -34.515625 L 6.90625 -74.296875 C 6.90625 -86.503906 10.253906 -95.457031 16.953125 -101.15625 C 23.660156 -106.863281 32.566406 -109.71875 43.671875 -109.71875 C 54.878906 -109.71875 63.832031 -106.863281 70.53125 -101.15625 C 77.238281 -95.457031 80.59375 -86.503906 80.59375 -74.296875 L 80.59375 -34.515625 C 80.59375 -22.304688 77.238281 -13.347656 70.53125 -7.640625 C 63.832031 -1.941406 54.878906 0.90625 43.671875 0.90625 C 32.566406 0.90625 23.660156 -1.941406 16.953125 -7.640625 C 10.253906 -13.347656 6.90625 -22.304688 6.90625 -34.515625 Z M 30.3125 -34.515625 C 30.3125 -24.515625 34.765625 -19.515625 43.671875 -19.515625 C 52.679688 -19.515625 57.1875 -24.515625 57.1875 -34.515625 L 57.1875 -74.296875 C 57.1875 -84.304688 52.679688 -89.3125 43.671875 -89.3125 C 34.765625 -89.3125 30.3125 -84.304688 30.3125 -74.296875 Z M 30.3125 -34.515625 "/></g></g></g><g fill="#ffffff" fill-opacity="0.4"><g transform="translate(621.686879, 270.125157)"><g><path d="M 1.34375 -6.15625 C 1.34375 -8.757812 2.195312 -11.507812 3.90625 -14.40625 L 46.234375 -89.3125 L 11.40625 -89.3125 C 9.207031 -89.3125 7.484375 -90.3125 6.234375 -92.3125 C 4.984375 -94.3125 4.359375 -96.710938 4.359375 -99.515625 C 4.359375 -102.316406 4.957031 -104.71875 6.15625 -106.71875 C 7.351562 -108.71875 9.101562 -109.71875 11.40625 -109.71875 L 69.34375 -109.71875 C 73.84375 -109.71875 76.09375 -107.664062 76.09375 -103.5625 C 76.09375 -101.164062 75.242188 -98.414062 73.546875 -95.3125 L 31.21875 -20.40625 L 72.046875 -20.40625 C 74.148438 -20.40625 75.847656 -19.351562 77.140625 -17.25 C 78.441406 -15.15625 79.09375 -12.804688 79.09375 -10.203125 C 79.09375 -7.597656 78.441406 -5.242188 77.140625 -3.140625 C 75.847656 -1.046875 74.148438 0 72.046875 0 L 8.109375 0 C 3.597656 0 1.34375 -2.050781 1.34375 -6.15625 Z M 1.34375 -6.15625 "/></g></g></g><g fill="#ffffff" fill-opacity="0.4"><g transform="translate(702.140219, 270.125157)"><g><path d="M 8.109375 -7.203125 L 8.109375 -102.671875 C 8.109375 -104.960938 9.257812 -106.707031 11.5625 -107.90625 C 13.863281 -109.113281 16.613281 -109.71875 19.8125 -109.71875 C 23.007812 -109.71875 25.757812 -109.113281 28.0625 -107.90625 C 30.363281 -106.707031 31.515625 -104.960938 31.515625 -102.671875 L 31.515625 -7.203125 C 31.515625 -4.898438 30.363281 -3.125 28.0625 -1.875 C 25.757812 -0.625 23.007812 0 19.8125 0 C 16.613281 0 13.863281 -0.625 11.5625 -1.875 C 9.257812 -3.125 8.109375 -4.898438 8.109375 -7.203125 Z M 8.109375 -7.203125 "/></g></g></g><g fill="#ffffff" fill-opacity="1"><g transform="translate(445.577371, 265.879588)"><g><path d="M 6.90625 -34.515625 L 6.90625 -74.296875 C 6.90625 -86.503906 10.226562 -95.457031 16.875 -101.15625 C 23.53125 -106.863281 32.210938 -109.71875 42.921875 -109.71875 C 53.929688 -109.71875 62.960938 -107.066406 70.015625 -101.765625 C 77.066406 -96.460938 80.59375 -89.15625 80.59375 -79.84375 C 80.59375 -75.539062 79.691406 -72.613281 77.890625 -71.0625 C 76.097656 -69.519531 73.097656 -68.75 68.890625 -68.75 C 61.390625 -68.75 57.488281 -71.097656 57.1875 -75.796875 C 56.882812 -84.804688 52.429688 -89.3125 43.828125 -89.3125 C 34.816406 -89.3125 30.3125 -84.304688 30.3125 -74.296875 L 30.3125 -34.515625 C 30.3125 -24.515625 34.867188 -19.515625 43.984375 -19.515625 C 46.785156 -19.515625 49.109375 -19.960938 50.953125 -20.859375 C 52.804688 -21.765625 54.132812 -23.140625 54.9375 -24.984375 C 55.738281 -26.835938 56.265625 -28.363281 56.515625 -29.5625 C 56.765625 -30.769531 56.988281 -32.421875 57.1875 -34.515625 C 57.582031 -39.222656 61.4375 -41.578125 68.75 -41.578125 C 73.050781 -41.578125 76.097656 -40.800781 77.890625 -39.25 C 79.691406 -37.695312 80.59375 -34.769531 80.59375 -30.46875 C 80.59375 -20.757812 77.066406 -13.101562 70.015625 -7.5 C 62.960938 -1.894531 53.929688 0.90625 42.921875 0.90625 C 32.210938 0.90625 23.53125 -1.941406 16.875 -7.640625 C 10.226562 -13.347656 6.90625 -22.304688 6.90625 -34.515625 Z M 6.90625 -34.515625 "/></g></g></g><g fill="#ffffff" fill-opacity="1"><g transform="translate(529.933292, 265.879588)"><g><path d="M 6.90625 -34.515625 L 6.90625 -74.296875 C 6.90625 -86.503906 10.253906 -95.457031 16.953125 -101.15625 C 23.660156 -106.863281 32.566406 -109.71875 43.671875 -109.71875 C 54.878906 -109.71875 63.832031 -106.863281 70.53125 -101.15625 C 77.238281 -95.457031 80.59375 -86.503906 80.59375 -74.296875 L 80.59375 -34.515625 C 80.59375 -22.304688 77.238281 -13.347656 70.53125 -7.640625 C 63.832031 -1.941406 54.878906 0.90625 43.671875 0.90625 C 32.566406 0.90625 23.660156 -1.941406 16.953125 -7.640625 C 10.253906 -13.347656 6.90625 -22.304688 6.90625 -34.515625 Z M 30.3125 -34.515625 C 30.3125 -24.515625 34.765625 -19.515625 43.671875 -19.515625 C 52.679688 -19.515625 57.1875 -24.515625 57.1875 -34.515625 L 57.1875 -74.296875 C 57.1875 -84.304688 52.679688 -89.3125 43.671875 -89.3125 C 34.765625 -89.3125 30.3125 -84.304688 30.3125 -74.296875 Z M 30.3125 -34.515625 "/></g></g></g><g fill="#ffffff" fill-opacity="1"><g transform="translate(617.441303, 265.879588)"><g><path d="M 1.34375 -6.15625 C 1.34375 -8.757812 2.195312 -11.507812 3.90625 -14.40625 L 46.234375 -89.3125 L 11.40625 -89.3125 C 9.207031 -89.3125 7.484375 -90.3125 6.234375 -92.3125 C 4.984375 -94.3125 4.359375 -96.710938 4.359375 -99.515625 C 4.359375 -102.316406 4.957031 -104.71875 6.15625 -106.71875 C 7.351562 -108.71875 9.101562 -109.71875 11.40625 -109.71875 L 69.34375 -109.71875 C 73.84375 -109.71875 76.09375 -107.664062 76.09375 -103.5625 C 76.09375 -101.164062 75.242188 -98.414062 73.546875 -95.3125 L 31.21875 -20.40625 L 72.046875 -20.40625 C 74.148438 -20.40625 75.847656 -19.351562 77.140625 -17.25 C 78.441406 -15.15625 79.09375 -12.804688 79.09375 -10.203125 C 79.09375 -7.597656 78.441406 -5.242188 77.140625 -3.140625 C 75.847656 -1.046875 74.148438 0 72.046875 0 L 8.109375 0 C 3.597656 0 1.34375 -2.050781 1.34375 -6.15625 Z M 1.34375 -6.15625 "/></g></g></g><g fill="#ffffff" fill-opacity="1"><g transform="translate(697.894643, 265.879588)"><g><path d="M 8.109375 -7.203125 L 8.109375 -102.671875 C 8.109375 -104.960938 9.257812 -106.707031 11.5625 -107.90625 C 13.863281 -109.113281 16.613281 -109.71875 19.8125 -109.71875 C 23.007812 -109.71875 25.757812 -109.113281 28.0625 -107.90625 C 30.363281 -106.707031 31.515625 -104.960938 31.515625 -102.671875 L 31.515625 -7.203125 C 31.515625 -4.898438 30.363281 -3.125 28.0625 -1.875 C 25.757812 -0.625 23.007812 0 19.8125 0 C 16.613281 0 13.863281 -0.625 11.5625 -1.875 C 9.257812 -3.125 8.109375 -4.898438 8.109375 -7.203125 Z M 8.109375 -7.203125 "/></g></g></g><g fill="#ffffff" fill-opacity="0.4"><g transform="translate(449.822947, 394.048353)"><g><path d="M 8.109375 -7.203125 L 8.109375 -102.515625 C 8.109375 -104.816406 9.257812 -106.59375 11.5625 -107.84375 C 13.863281 -109.09375 16.613281 -109.71875 19.8125 -109.71875 C 24.3125 -109.71875 27.632812 -109.066406 29.78125 -107.765625 C 31.9375 -106.460938 34.367188 -103.210938 37.078125 -98.015625 L 61.390625 -51.625 L 61.390625 -102.671875 C 61.390625 -104.960938 62.539062 -106.707031 64.84375 -107.90625 C 67.144531 -109.113281 69.894531 -109.71875 73.09375 -109.71875 C 76.300781 -109.71875 79.050781 -109.113281 81.34375 -107.90625 C 83.644531 -106.707031 84.796875 -104.960938 84.796875 -102.671875 L 84.796875 -7.203125 C 84.796875 -4.898438 83.644531 -3.125 81.34375 -1.875 C 79.050781 -0.625 76.300781 0 73.09375 0 C 66.6875 0 62.332031 -2.097656 60.03125 -6.296875 L 31.515625 -58.234375 L 31.515625 -7.203125 C 31.515625 -4.898438 30.363281 -3.125 28.0625 -1.875 C 25.757812 -0.625 23.007812 0 19.8125 0 C 16.613281 0 13.863281 -0.625 11.5625 -1.875 C 9.257812 -3.125 8.109375 -4.898438 8.109375 -7.203125 Z M 8.109375 -7.203125 "/></g></g></g><g fill="#ffffff" fill-opacity="0.4"><g transform="translate(542.734544, 394.048353)"><g><path d="M 8.109375 -7.203125 L 8.109375 -102.671875 C 8.109375 -104.960938 9.257812 -106.707031 11.5625 -107.90625 C 13.863281 -109.113281 16.613281 -109.71875 19.8125 -109.71875 C 23.007812 -109.71875 25.757812 -109.113281 28.0625 -107.90625 C 30.363281 -106.707031 31.515625 -104.960938 31.515625 -102.671875 L 31.515625 -65.890625 L 61.390625 -65.890625 L 61.390625 -102.671875 C 61.390625 -104.960938 62.539062 -106.707031 64.84375 -107.90625 C 67.144531 -109.113281 69.894531 -109.71875 73.09375 -109.71875 C 76.300781 -109.71875 79.050781 -109.113281 81.34375 -107.90625 C 83.644531 -106.707031 84.796875 -104.960938 84.796875 -102.671875 L 84.796875 -7.203125 C 84.796875 -4.898438 83.644531 -3.125 81.34375 -1.875 C 79.050781 -0.625 76.300781 0 73.09375 0 C 69.894531 0 67.144531 -0.625 64.84375 -1.875 C 62.539062 -3.125 61.390625 -4.898438 61.390625 -7.203125 L 61.390625 -47.875 L 31.515625 -47.875 L 31.515625 -7.203125 C 31.515625 -4.898438 30.363281 -3.125 28.0625 -1.875 C 25.757812 -0.625 23.007812 0 19.8125 0 C 16.613281 0 13.863281 -0.625 11.5625 -1.875 C 9.257812 -3.125 8.109375 -4.898438 8.109375 -7.203125 Z M 8.109375 -7.203125 "/></g></g></g><g fill="#ffffff" fill-opacity="0.4"><g transform="translate(635.646141, 394.048353)"><g><path d="M 0.59375 -9.609375 C 0.59375 -9.910156 0.695312 -10.457031 0.90625 -11.25 L 28.8125 -102.8125 C 29.613281 -105.3125 31.441406 -107.238281 34.296875 -108.59375 C 37.148438 -109.945312 40.425781 -110.625 44.125 -110.625 C 47.832031 -110.625 51.109375 -109.945312 53.953125 -108.59375 C 56.804688 -107.238281 58.632812 -105.3125 59.4375 -102.8125 L 87.5 -11.25 C 87.707031 -10.457031 87.8125 -9.910156 87.8125 -9.609375 C 87.8125 -7.003906 86.179688 -4.75 82.921875 -2.84375 C 79.671875 -0.945312 76.296875 0 72.796875 0 C 68.492188 0 65.941406 -1.453125 65.140625 -4.359375 L 60.03125 -23.109375 L 28.375 -23.109375 L 23.265625 -4.359375 C 22.460938 -1.453125 19.910156 0 15.609375 0 C 12.109375 0 8.726562 -0.945312 5.46875 -2.84375 C 2.21875 -4.75 0.59375 -7.003906 0.59375 -9.609375 Z M 33.171875 -41.125 L 55.078125 -41.125 L 44.125 -81.34375 Z M 33.171875 -41.125 "/></g></g></g><g fill="#ffffff" fill-opacity="1"><g transform="translate(445.577371, 389.802784)"><g><path d="M 8.109375 -7.203125 L 8.109375 -102.515625 C 8.109375 -104.816406 9.257812 -106.59375 11.5625 -107.84375 C 13.863281 -109.09375 16.613281 -109.71875 19.8125 -109.71875 C 24.3125 -109.71875 27.632812 -109.066406 29.78125 -107.765625 C 31.9375 -106.460938 34.367188 -103.210938 37.078125 -98.015625 L 61.390625 -51.625 L 61.390625 -102.671875 C 61.390625 -104.960938 62.539062 -106.707031 64.84375 -107.90625 C 67.144531 -109.113281 69.894531 -109.71875 73.09375 -109.71875 C 76.300781 -109.71875 79.050781 -109.113281 81.34375 -107.90625 C 83.644531 -106.707031 84.796875 -104.960938 84.796875 -102.671875 L 84.796875 -7.203125 C 84.796875 -4.898438 83.644531 -3.125 81.34375 -1.875 C 79.050781 -0.625 76.300781 0 73.09375 0 C 66.6875 0 62.332031 -2.097656 60.03125 -6.296875 L 31.515625 -58.234375 L 31.515625 -7.203125 C 31.515625 -4.898438 30.363281 -3.125 28.0625 -1.875 C 25.757812 -0.625 23.007812 0 19.8125 0 C 16.613281 0 13.863281 -0.625 11.5625 -1.875 C 9.257812 -3.125 8.109375 -4.898438 8.109375 -7.203125 Z M 8.109375 -7.203125 "/></g></g></g><g fill="#ffffff" fill-opacity="1"><g transform="translate(538.488968, 389.802784)"><g><path d="M 8.109375 -7.203125 L 8.109375 -102.671875 C 8.109375 -104.960938 9.257812 -106.707031 11.5625 -107.90625 C 13.863281 -109.113281 16.613281 -109.71875 19.8125 -109.71875 C 23.007812 -109.71875 25.757812 -109.113281 28.0625 -107.90625 C 30.363281 -106.707031 31.515625 -104.960938 31.515625 -102.671875 L 31.515625 -65.890625 L 61.390625 -65.890625 L 61.390625 -102.671875 C 61.390625 -104.960938 62.539062 -106.707031 64.84375 -107.90625 C 67.144531 -109.113281 69.894531 -109.71875 73.09375 -109.71875 C 76.300781 -109.71875 79.050781 -109.113281 81.34375 -107.90625 C 83.644531 -106.707031 84.796875 -104.960938 84.796875 -102.671875 L 84.796875 -7.203125 C 84.796875 -4.898438 83.644531 -3.125 81.34375 -1.875 C 79.050781 -0.625 76.300781 0 73.09375 0 C 69.894531 0 67.144531 -0.625 64.84375 -1.875 C 62.539062 -3.125 61.390625 -4.898438 61.390625 -7.203125 L 61.390625 -47.875 L 31.515625 -47.875 L 31.515625 -7.203125 C 31.515625 -4.898438 30.363281 -3.125 28.0625 -1.875 C 25.757812 -0.625 23.007812 0 19.8125 0 C 16.613281 0 13.863281 -0.625 11.5625 -1.875 C 9.257812 -3.125 8.109375 -4.898438 8.109375 -7.203125 Z M 8.109375 -7.203125 "/></g></g></g><g fill="#ffffff" fill-opacity="1"><g transform="translate(631.400565, 389.802784)"><g><path d="M 0.59375 -9.609375 C 0.59375 -9.910156 0.695312 -10.457031 0.90625 -11.25 L 28.8125 -102.8125 C 29.613281 -105.3125 31.441406 -107.238281 34.296875 -108.59375 C 37.148438 -109.945312 40.425781 -110.625 44.125 -110.625 C 47.832031 -110.625 51.109375 -109.945312 53.953125 -108.59375 C 56.804688 -107.238281 58.632812 -105.3125 59.4375 -102.8125 L 87.5 -11.25 C 87.707031 -10.457031 87.8125 -9.910156 87.8125 -9.609375 C 87.8125 -7.003906 86.179688 -4.75 82.921875 -2.84375 C 79.671875 -0.945312 76.296875 0 72.796875 0 C 68.492188 0 65.941406 -1.453125 65.140625 -4.359375 L 60.03125 -23.109375 L 28.375 -23.109375 L 23.265625 -4.359375 C 22.460938 -1.453125 19.910156 0 15.609375 0 C 12.109375 0 8.726562 -0.945312 5.46875 -2.84375 C 2.21875 -4.75 0.59375 -7.003906 0.59375 -9.609375 Z M 33.171875 -41.125 L 55.078125 -41.125 L 44.125 -81.34375 Z M 33.171875 -41.125 "/></g></g></g><g fill="#ffb339" fill-opacity="1"><g transform="translate(731.802411, 327.624035)"><g><path d="M -1.140625 -1.65625 L -19.140625 -1.65625 C -19.484375 -1.65625 -19.757812 -1.8125 -19.96875 -2.125 C -20.175781 -2.445312 -20.28125 -2.820312 -20.28125 -3.25 L -20.28125 -13.125 C -20.28125 -13.488281 -20.117188 -13.765625 -19.796875 -13.953125 C -19.484375 -14.148438 -19.125 -14.25 -18.71875 -14.25 C -18.28125 -14.25 -17.898438 -14.144531 -17.578125 -13.9375 C -17.265625 -13.738281 -17.109375 -13.46875 -17.109375 -13.125 L -17.109375 -5.265625 L -11.5625 -5.265625 L -11.5625 -9.484375 C -11.5625 -9.835938 -11.414062 -10.113281 -11.125 -10.3125 C -10.84375 -10.519531 -10.507812 -10.625 -10.125 -10.625 C -9.769531 -10.625 -9.445312 -10.523438 -9.15625 -10.328125 C -8.875 -10.140625 -8.734375 -9.859375 -8.734375 -9.484375 L -8.734375 -5.265625 L -3.15625 -5.265625 L -3.15625 -13.125 C -3.15625 -13.46875 -3 -13.738281 -2.6875 -13.9375 C -2.375 -14.144531 -1.992188 -14.25 -1.546875 -14.25 C -1.140625 -14.25 -0.78125 -14.148438 -0.46875 -13.953125 C -0.15625 -13.765625 0 -13.488281 0 -13.125 L 0 -3.25 C 0 -2.820312 -0.0976562 -2.445312 -0.296875 -2.125 C -0.503906 -1.8125 -0.785156 -1.65625 -1.140625 -1.65625 Z M -1.140625 -1.65625 "/></g></g></g><g fill="#ffb339" fill-opacity="1"><g transform="translate(731.802411, 314.200071)"><g/></g></g><g fill="#ffb339" fill-opacity="1"><g transform="translate(731.802411, 309.928853)"><g><path d="M -6.1875 -1.46875 L -13.921875 -1.46875 C -16.097656 -1.46875 -17.703125 -2.054688 -18.734375 -3.234375 C -19.765625 -4.421875 -20.28125 -5.96875 -20.28125 -7.875 C -20.28125 -9.8125 -19.796875 -11.394531 -18.828125 -12.625 C -17.867188 -13.863281 -16.59375 -14.484375 -15 -14.484375 C -14.320312 -14.484375 -13.859375 -14.34375 -13.609375 -14.0625 C -13.359375 -13.78125 -13.234375 -13.316406 -13.234375 -12.671875 C -13.234375 -11.492188 -13.609375 -10.894531 -14.359375 -10.875 C -14.609375 -10.851562 -14.816406 -10.828125 -14.984375 -10.796875 C -15.160156 -10.773438 -15.390625 -10.703125 -15.671875 -10.578125 C -15.960938 -10.460938 -16.207031 -10.3125 -16.40625 -10.125 C -16.601562 -9.9375 -16.769531 -9.65625 -16.90625 -9.28125 C -17.039062 -8.914062 -17.109375 -8.484375 -17.109375 -7.984375 C -17.109375 -6.046875 -16.046875 -5.078125 -13.921875 -5.078125 L -6.1875 -5.078125 C -4.0625 -5.078125 -3 -6.066406 -3 -8.046875 C -3 -8.640625 -3.085938 -9.132812 -3.265625 -9.53125 C -3.453125 -9.925781 -3.71875 -10.210938 -4.0625 -10.390625 C -4.40625 -10.566406 -4.707031 -10.6875 -4.96875 -10.75 C -5.238281 -10.8125 -5.570312 -10.851562 -5.96875 -10.875 C -6.71875 -10.925781 -7.09375 -11.515625 -7.09375 -12.640625 C -7.09375 -13.296875 -6.96875 -13.765625 -6.71875 -14.046875 C -6.46875 -14.335938 -6.003906 -14.484375 -5.328125 -14.484375 C -3.660156 -14.484375 -2.328125 -13.863281 -1.328125 -12.625 C -0.328125 -11.394531 0.171875 -9.800781 0.171875 -7.84375 C 0.171875 -5.9375 -0.335938 -4.394531 -1.359375 -3.21875 C -2.390625 -2.050781 -4 -1.46875 -6.1875 -1.46875 Z M -6.1875 -1.46875 "/></g></g></g><g fill="#ffb339" fill-opacity="1"><g transform="translate(731.802411, 295.950179)"><g><path d="M -6.1875 -1.4375 L -13.921875 -1.4375 C -16.117188 -1.4375 -17.726562 -2.023438 -18.75 -3.203125 C -19.769531 -4.378906 -20.28125 -5.957031 -20.28125 -7.9375 C -20.28125 -9.914062 -19.769531 -11.492188 -18.75 -12.671875 C -17.726562 -13.859375 -16.117188 -14.453125 -13.921875 -14.453125 L -6.1875 -14.453125 C -3.988281 -14.453125 -2.378906 -13.859375 -1.359375 -12.671875 C -0.335938 -11.492188 0.171875 -9.914062 0.171875 -7.9375 C 0.171875 -5.957031 -0.335938 -4.378906 -1.359375 -3.203125 C -2.378906 -2.023438 -3.988281 -1.4375 -6.1875 -1.4375 Z M -6.1875 -5.046875 C -4.0625 -5.046875 -3 -6.007812 -3 -7.9375 C -3 -9.875 -4.0625 -10.84375 -6.1875 -10.84375 L -13.921875 -10.84375 C -16.046875 -10.84375 -17.109375 -9.875 -17.109375 -7.9375 C -17.109375 -6.007812 -16.046875 -5.046875 -13.921875 -5.046875 Z M -6.1875 -5.046875 "/></g></g></g><g fill="#ffb339" fill-opacity="1"><g transform="translate(731.802411, 281.361322)"><g><path d="M -0.375 -1.3125 C -0.75 -0.957031 -1.195312 -0.78125 -1.71875 -0.78125 C -2.238281 -0.78125 -2.679688 -0.957031 -3.046875 -1.3125 C -3.421875 -1.675781 -3.609375 -2.125 -3.609375 -2.65625 C -3.609375 -3.15625 -3.421875 -3.585938 -3.046875 -3.953125 C -2.679688 -4.328125 -2.238281 -4.515625 -1.71875 -4.515625 C -1.21875 -4.515625 -0.773438 -4.328125 -0.390625 -3.953125 C -0.015625 -3.585938 0.171875 -3.15625 0.171875 -2.65625 C 0.171875 -2.125 -0.0078125 -1.675781 -0.375 -1.3125 Z M -0.375 -1.3125 "/></g></g></g><g clip-path="url(#9cdea0a08f)"><g mask="url(#67a5aba42c)"><g transform="matrix(1, 0, 0, 1, 0.000000000000000111, -0.000000000000018843)"><g clip-path="url(#e60baf5e59)"><g mask="url(#44545044a7)"><g transform="matrix(1, 0, 0, 1, 84, 264)"><g clip-path="url(#6c2be37911)"><g clip-path="url(#136874fbba)"><g clip-path="url(#1ce1ed38bf)"><g clip-path="url(#2d9e97091f)"><g clip-path="url(#91c42dcee3)"><path fill="#ffb339" d="M 138.300781 90.058594 L 168.246094 125.375 C 133.90625 154.496094 82.429688 150.261719 53.308594 115.921875 C 24.1875 81.578125 28.421875 30.105469 62.765625 0.980469 L 92.691406 36.273438 C 77.980469 48.875 76.226562 71.042969 88.777344 85.84375 C 101.324219 100.644531 123.460938 102.511719 138.300781 90.058594 Z M 138.300781 90.058594 " fill-opacity="1" fill-rule="nonzero"/></g></g></g></g></g></g></g><g clip-path="url(#84e288116a)"><path fill="#4d6620" d="M 120.851562 145.929688 C 120.851562 314.753906 257.710938 451.613281 426.535156 451.617188 L 426.535156 145.929688 Z M 120.851562 145.929688 " fill-opacity="1" fill-rule="nonzero"/></g><g clip-path="url(#6c2d89ec09)"><path fill="#e05a47" d="M 159.820312 145.234375 C 159.820312 292.925781 279.542969 412.648438 427.230469 412.648438 L 427.230469 145.234375 Z M 159.820312 145.234375 " fill-opacity="1" fill-rule="nonzero"/></g><g clip-path="url(#1b6f5500dc)"><path fill="#4d6620" d="M 146.910156 146.003906 L 426.46875 146.003906 L 426.46875 190.308594 L 146.910156 190.308594 Z M 146.910156 146.003906 " fill-opacity="1" fill-rule="nonzero"/></g><g clip-path="url(#79bd85d6ae)"><path fill="#4d6620" d="M 382.160156 412.648438 L 382.160156 190.308594 L 426.46875 190.308594 L 426.46875 412.648438 Z M 382.160156 412.648438 " fill-opacity="1" fill-rule="nonzero"/></g><g clip-path="url(#cb80636d89)"><path fill="#ffb339" d="M 426.402344 194.214844 L 426.402344 232.871094 C 378.464844 232.871094 339.601562 194.007812 339.601562 146.066406 L 378.253906 146.066406 C 378.253906 172.660156 399.8125 194.214844 426.402344 194.214844 Z M 426.402344 194.214844 " fill-opacity="1" fill-rule="nonzero"/></g><g clip-path="url(#ce34009ba5)"><g mask="url(#a60ddd62f4)"><g transform="matrix(1, 0, 0, 1, 0.000000000000000111, -0.000000000000018843)"><g clip-path="url(#9a1dc69ea8)"><g fill="#f0f4e7" fill-opacity="1"><g transform="translate(206.993327, 253.713897)"><g><path d="M 70.6875 -3.296875 C 70.570312 -3.472656 70.460938 -3.65625 70.359375 -3.84375 C 70.359375 -3.84375 70.410156 -3.75 70.515625 -3.5625 C 70.515625 -3.5625 70.570312 -3.472656 70.6875 -3.296875 Z M 142.15625 83.46875 C 143.382812 84.082031 145.085938 85.210938 147.265625 86.859375 C 149.441406 88.515625 151.203125 90.296875 152.546875 92.203125 C 153.898438 94.117188 154 95.984375 152.84375 97.796875 C 152.0625 99.128906 151.03125 99.96875 149.75 100.3125 C 148.46875 100.664062 147.175781 100.679688 145.875 100.359375 C 137.414062 98.671875 127.222656 94.285156 115.296875 87.203125 C 103.367188 80.117188 91.867188 72.253906 80.796875 63.609375 C 69.734375 54.960938 61.316406 47.3125 55.546875 40.65625 C 48.835938 33.070312 43.222656 24.640625 38.703125 15.359375 C 33.523438 3.753906 33.117188 -6.960938 37.484375 -16.796875 C 41.859375 -26.640625 49.0625 -33.925781 59.09375 -38.65625 C 70.519531 -43.488281 81.785156 -43.757812 92.890625 -39.46875 C 103.992188 -35.175781 111.894531 -27.328125 116.59375 -15.921875 C 119.613281 -9.078125 120.789062 -1.914062 120.125 5.5625 C 119 13.914062 115.316406 19.585938 109.078125 22.578125 C 102.835938 25.566406 96.175781 24.800781 89.09375 20.28125 C 85.4375 17.914062 82.164062 14.820312 79.28125 11 C 76.394531 7.175781 73.53125 2.410156 70.6875 -3.296875 C 70.6875 -3.296875 70.601562 -3.429688 70.4375 -3.703125 C 70.28125 -3.972656 70.019531 -4.398438 69.65625 -4.984375 C 69.300781 -5.578125 68.929688 -6.191406 68.546875 -6.828125 C 67.554688 -8.453125 66.457031 -9.238281 65.25 -9.1875 C 64.039062 -9.144531 62.890625 -8.488281 61.796875 -7.21875 C 56.191406 0.289062 55.835938 8.535156 60.734375 17.515625 C 65.640625 26.503906 73.316406 35.414062 83.765625 44.25 C 94.210938 53.09375 104.898438 61.015625 115.828125 68.015625 C 126.765625 75.015625 135.539062 80.164062 142.15625 83.46875 Z M 92.9375 -17.1875 C 91.125 -17.925781 89.40625 -18.144531 87.78125 -17.84375 C 86.164062 -17.550781 84.878906 -17.175781 83.921875 -16.71875 C 82.960938 -16.269531 82.503906 -15.804688 82.546875 -15.328125 C 82.585938 -14.859375 83.023438 -13.570312 83.859375 -11.46875 C 84.691406 -9.375 85.921875 -7.238281 87.546875 -5.0625 C 89.179688 -2.894531 90.835938 -1.300781 92.515625 -0.28125 C 94.191406 0.738281 95.890625 0.421875 97.609375 -1.234375 C 99.804688 -3.921875 100.398438 -6.910156 99.390625 -10.203125 C 98.390625 -13.503906 96.238281 -15.832031 92.9375 -17.1875 Z M 92.9375 -17.1875 "/></g></g></g></g></g></g></g></g></g></g></g></svg>