<svg xmlns="http://www.w3.org/2000/svg" xmlns:xlink="http://www.w3.org/1999/xlink" width="500" zoomAndPan="magnify" viewBox="0 0 375 374.999991" height="500" preserveAspectRatio="xMidYMid meet" version="1.0"><defs><g/><clipPath id="4e7a4dec78"><path d="M 72 212 L 99 212 L 99 241 L 72 241 Z M 72 212 " clip-rule="nonzero"/></clipPath><clipPath id="29a59ef974"><path d="M 86.195312 247.675781 L 65.335938 223.078125 L 77.921875 212.40625 L 98.777344 237.003906 Z M 86.195312 247.675781 " clip-rule="nonzero"/></clipPath><clipPath id="30b5eef45a"><path d="M 86.195312 247.675781 L 65.335938 223.078125 L 77.921875 212.40625 L 98.777344 237.003906 Z M 86.195312 247.675781 " clip-rule="nonzero"/></clipPath><clipPath id="2b65018d18"><path d="M 86.195312 247.675781 L 65.335938 223.078125 L 77.921875 212.40625 L 98.777344 237.003906 Z M 86.195312 247.675781 " clip-rule="nonzero"/></clipPath><clipPath id="599cae8e57"><path d="M 72.429688 188.808594 L 133.179688 188.808594 L 133.179688 249.558594 L 72.429688 249.558594 Z M 72.429688 188.808594 " clip-rule="nonzero"/></clipPath><clipPath id="d870f24ce7"><path d="M 75.519531 189.886719 L 132.519531 189.886719 L 132.519531 246.886719 L 75.519531 246.886719 Z M 75.519531 189.886719 " clip-rule="nonzero"/></clipPath><clipPath id="d8e5f8f2a9"><path d="M 122.480469 188.714844 L 132.980469 188.714844 L 132.980469 199.214844 L 122.480469 199.214844 Z M 122.480469 188.714844 " clip-rule="nonzero"/></clipPath><clipPath id="1dec3a15a8"><path d="M 213.921875 237.902344 L 226.511719 237.902344 L 226.511719 250.488281 L 213.921875 250.488281 Z M 213.921875 237.902344 " clip-rule="nonzero"/></clipPath><clipPath id="d48b8b4660"><path d="M 220.214844 237.902344 C 216.738281 237.902344 213.921875 240.71875 213.921875 244.195312 C 213.921875 247.671875 216.738281 250.488281 220.214844 250.488281 C 223.691406 250.488281 226.511719 247.671875 226.511719 244.195312 C 226.511719 240.71875 223.691406 237.902344 220.214844 237.902344 Z M 220.214844 237.902344 " clip-rule="nonzero"/></clipPath><clipPath id="49eb7eacfc"><path d="M 217.515625 241.496094 L 222.917969 241.496094 L 222.917969 246.898438 L 217.515625 246.898438 Z M 217.515625 241.496094 " clip-rule="nonzero"/></clipPath><clipPath id="0b06682b2d"><path d="M 220.214844 241.496094 C 218.722656 241.496094 217.515625 242.703125 217.515625 244.195312 C 217.515625 245.6875 218.722656 246.898438 220.214844 246.898438 C 221.707031 246.898438 222.917969 245.6875 222.917969 244.195312 C 222.917969 242.703125 221.707031 241.496094 220.214844 241.496094 Z M 220.214844 241.496094 " clip-rule="nonzero"/></clipPath></defs><g clip-path="url(#4e7a4dec78)"><g clip-path="url(#29a59ef974)"><g clip-path="url(#30b5eef45a)"><g clip-path="url(#2b65018d18)"><path fill="#ffb339" d="M 92.855469 230.015625 L 98.773438 237 C 91.824219 242.890625 81.519531 242.164062 75.765625 235.375 C 70.007812 228.585938 70.976562 218.300781 77.925781 212.410156 L 83.839844 219.386719 C 80.863281 221.9375 80.460938 226.363281 82.941406 229.289062 C 85.421875 232.214844 89.851562 232.539062 92.855469 230.015625 Z M 92.855469 230.015625 " fill-opacity="1" fill-rule="nonzero"/></g></g></g></g><g clip-path="url(#599cae8e57)"><path fill="#e18173" d="M 72.429688 188.808594 C 72.429688 222.363281 99.628906 249.558594 133.179688 249.558594 L 133.179688 188.808594 Z M 72.429688 188.808594 " fill-opacity="1" fill-rule="nonzero"/></g><g clip-path="url(#d870f24ce7)"><path fill="#e05a47" d="M 75.519531 189.886719 C 75.519531 221.367188 101.039062 246.886719 132.515625 246.886719 L 132.515625 189.886719 Z M 75.519531 189.886719 " fill-opacity="1" fill-rule="nonzero"/></g><g fill="#4d6620" fill-opacity="1"><g transform="translate(138.847145, 244.067238)"><g><path d="M 3.25 -16.21875 L 3.25 -34.90625 C 3.25 -40.644531 4.8125 -44.851562 7.9375 -47.53125 C 11.0625 -50.21875 15.140625 -51.5625 20.171875 -51.5625 C 25.347656 -51.5625 29.59375 -50.3125 32.90625 -47.8125 C 36.21875 -45.320312 37.875 -41.890625 37.875 -37.515625 C 37.875 -35.492188 37.453125 -34.117188 36.609375 -33.390625 C 35.765625 -32.660156 34.351562 -32.296875 32.375 -32.296875 C 28.84375 -32.296875 27.007812 -33.40625 26.875 -35.625 C 26.726562 -39.851562 24.632812 -41.96875 20.59375 -41.96875 C 16.363281 -41.96875 14.25 -39.613281 14.25 -34.90625 L 14.25 -16.21875 C 14.25 -11.519531 16.390625 -9.171875 20.671875 -9.171875 C 21.984375 -9.171875 23.070312 -9.378906 23.9375 -9.796875 C 24.8125 -10.222656 25.4375 -10.867188 25.8125 -11.734375 C 26.1875 -12.609375 26.429688 -13.328125 26.546875 -13.890625 C 26.671875 -14.453125 26.78125 -15.226562 26.875 -16.21875 C 27.0625 -18.425781 28.867188 -19.53125 32.296875 -19.53125 C 34.328125 -19.53125 35.765625 -19.164062 36.609375 -18.4375 C 37.453125 -17.707031 37.875 -16.332031 37.875 -14.3125 C 37.875 -9.75 36.21875 -6.148438 32.90625 -3.515625 C 29.59375 -0.890625 25.347656 0.421875 20.171875 0.421875 C 15.140625 0.421875 11.0625 -0.914062 7.9375 -3.59375 C 4.8125 -6.28125 3.25 -10.488281 3.25 -16.21875 Z M 3.25 -16.21875 "/></g></g></g><g fill="#4d6620" fill-opacity="1"><g transform="translate(175.236492, 244.067238)"><g><path d="M 3.25 -16.21875 L 3.25 -34.90625 C 3.25 -40.644531 4.820312 -44.851562 7.96875 -47.53125 C 11.125 -50.21875 15.3125 -51.5625 20.53125 -51.5625 C 25.789062 -51.5625 29.992188 -50.21875 33.140625 -47.53125 C 36.296875 -44.851562 37.875 -40.644531 37.875 -34.90625 L 37.875 -16.21875 C 37.875 -10.488281 36.296875 -6.28125 33.140625 -3.59375 C 29.992188 -0.914062 25.789062 0.421875 20.53125 0.421875 C 15.3125 0.421875 11.125 -0.914062 7.96875 -3.59375 C 4.820312 -6.28125 3.25 -10.488281 3.25 -16.21875 Z M 14.25 -16.21875 C 14.25 -11.519531 16.34375 -9.171875 20.53125 -9.171875 C 24.757812 -9.171875 26.875 -11.519531 26.875 -16.21875 L 26.875 -34.90625 C 26.875 -39.613281 24.757812 -41.96875 20.53125 -41.96875 C 16.34375 -41.96875 14.25 -39.613281 14.25 -34.90625 Z M 14.25 -16.21875 "/></g></g></g><g fill="#4d6620" fill-opacity="1"><g transform="translate(65.220036, 184.133856)"><g><path d="M 3.25 -16.21875 L 3.25 -34.90625 C 3.25 -40.644531 4.8125 -44.851562 7.9375 -47.53125 C 11.0625 -50.21875 15.140625 -51.5625 20.171875 -51.5625 C 25.347656 -51.5625 29.59375 -50.3125 32.90625 -47.8125 C 36.21875 -45.320312 37.875 -41.890625 37.875 -37.515625 C 37.875 -35.492188 37.453125 -34.117188 36.609375 -33.390625 C 35.765625 -32.660156 34.351562 -32.296875 32.375 -32.296875 C 28.84375 -32.296875 27.007812 -33.40625 26.875 -35.625 C 26.726562 -39.851562 24.632812 -41.96875 20.59375 -41.96875 C 16.363281 -41.96875 14.25 -39.613281 14.25 -34.90625 L 14.25 -16.21875 C 14.25 -11.519531 16.390625 -9.171875 20.671875 -9.171875 C 21.984375 -9.171875 23.070312 -9.378906 23.9375 -9.796875 C 24.8125 -10.222656 25.4375 -10.867188 25.8125 -11.734375 C 26.1875 -12.609375 26.429688 -13.328125 26.546875 -13.890625 C 26.671875 -14.453125 26.78125 -15.226562 26.875 -16.21875 C 27.0625 -18.425781 28.867188 -19.53125 32.296875 -19.53125 C 34.328125 -19.53125 35.765625 -19.164062 36.609375 -18.4375 C 37.453125 -17.707031 37.875 -16.332031 37.875 -14.3125 C 37.875 -9.75 36.21875 -6.148438 32.90625 -3.515625 C 29.59375 -0.890625 25.347656 0.421875 20.171875 0.421875 C 15.140625 0.421875 11.0625 -0.914062 7.9375 -3.59375 C 4.8125 -6.28125 3.25 -10.488281 3.25 -16.21875 Z M 3.25 -16.21875 "/></g></g></g><g fill="#4d6620" fill-opacity="1"><g transform="translate(101.609383, 184.133856)"><g><path d="M 3.25 -16.21875 L 3.25 -34.90625 C 3.25 -40.644531 4.820312 -44.851562 7.96875 -47.53125 C 11.125 -50.21875 15.3125 -51.5625 20.53125 -51.5625 C 25.789062 -51.5625 29.992188 -50.21875 33.140625 -47.53125 C 36.296875 -44.851562 37.875 -40.644531 37.875 -34.90625 L 37.875 -16.21875 C 37.875 -10.488281 36.296875 -6.28125 33.140625 -3.59375 C 29.992188 -0.914062 25.789062 0.421875 20.53125 0.421875 C 15.3125 0.421875 11.125 -0.914062 7.96875 -3.59375 C 4.820312 -6.28125 3.25 -10.488281 3.25 -16.21875 Z M 14.25 -16.21875 C 14.25 -11.519531 16.34375 -9.171875 20.53125 -9.171875 C 24.757812 -9.171875 26.875 -11.519531 26.875 -16.21875 L 26.875 -34.90625 C 26.875 -39.613281 24.757812 -41.96875 20.53125 -41.96875 C 16.34375 -41.96875 14.25 -39.613281 14.25 -34.90625 Z M 14.25 -16.21875 "/></g></g></g><g fill="#4d6620" fill-opacity="1"><g transform="translate(139.47971, 184.133856)"><g><path d="M 0.640625 -2.890625 C 0.640625 -4.109375 1.035156 -5.398438 1.828125 -6.765625 L 21.71875 -41.96875 L 5.359375 -41.96875 C 4.328125 -41.96875 3.515625 -42.4375 2.921875 -43.375 C 2.335938 -44.3125 2.046875 -45.4375 2.046875 -46.75 C 2.046875 -48.070312 2.328125 -49.203125 2.890625 -50.140625 C 3.453125 -51.085938 4.273438 -51.5625 5.359375 -51.5625 L 32.578125 -51.5625 C 34.703125 -51.5625 35.765625 -50.597656 35.765625 -48.671875 C 35.765625 -47.535156 35.363281 -46.238281 34.5625 -44.78125 L 14.671875 -9.59375 L 33.859375 -9.59375 C 34.847656 -9.59375 35.644531 -9.097656 36.25 -8.109375 C 36.863281 -7.117188 37.171875 -6.015625 37.171875 -4.796875 C 37.171875 -3.578125 36.863281 -2.472656 36.25 -1.484375 C 35.644531 -0.492188 34.847656 0 33.859375 0 L 3.8125 0 C 1.695312 0 0.640625 -0.960938 0.640625 -2.890625 Z M 0.640625 -2.890625 "/></g></g></g><g fill="#4d6620" fill-opacity="1"><g transform="translate(174.035454, 184.133856)"><g><path d="M 3.8125 -3.390625 L 3.8125 -48.25 C 3.8125 -49.320312 4.347656 -50.140625 5.421875 -50.703125 C 6.503906 -51.273438 7.796875 -51.5625 9.296875 -51.5625 C 10.804688 -51.5625 12.101562 -51.273438 13.1875 -50.703125 C 14.269531 -50.140625 14.8125 -49.320312 14.8125 -48.25 L 14.8125 -3.390625 C 14.8125 -2.304688 14.269531 -1.46875 13.1875 -0.875 C 12.101562 -0.289062 10.804688 0 9.296875 0 C 7.796875 0 6.503906 -0.289062 5.421875 -0.875 C 4.347656 -1.46875 3.8125 -2.304688 3.8125 -3.390625 Z M 3.8125 -3.390625 "/></g></g></g><g fill="#4d6620" fill-opacity="1"><g transform="translate(189.40893, 184.133856)"><g><path d="M 3.8125 -3.390625 L 3.8125 -48.171875 C 3.8125 -49.253906 4.347656 -50.085938 5.421875 -50.671875 C 6.503906 -51.265625 7.800781 -51.5625 9.3125 -51.5625 C 11.425781 -51.5625 12.988281 -51.253906 14 -50.640625 C 15.007812 -50.023438 16.148438 -48.5 17.421875 -46.0625 L 28.84375 -24.265625 L 28.84375 -48.25 C 28.84375 -49.320312 29.382812 -50.140625 30.46875 -50.703125 C 31.550781 -51.273438 32.84375 -51.5625 34.34375 -51.5625 C 35.851562 -51.5625 37.144531 -51.273438 38.21875 -50.703125 C 39.300781 -50.140625 39.84375 -49.320312 39.84375 -48.25 L 39.84375 -3.390625 C 39.84375 -2.304688 39.300781 -1.46875 38.21875 -0.875 C 37.144531 -0.289062 35.851562 0 34.34375 0 C 31.332031 0 29.289062 -0.988281 28.21875 -2.96875 L 14.8125 -27.359375 L 14.8125 -3.390625 C 14.8125 -2.304688 14.269531 -1.46875 13.1875 -0.875 C 12.101562 -0.289062 10.804688 0 9.296875 0 C 7.796875 0 6.503906 -0.289062 5.421875 -0.875 C 4.347656 -1.46875 3.8125 -2.304688 3.8125 -3.390625 Z M 3.8125 -3.390625 "/></g></g></g><g fill="#4d6620" fill-opacity="1"><g transform="translate(229.818102, 184.133856)"><g><path d="M 3.8125 -3.390625 L 3.8125 -48.25 C 3.8125 -49.320312 4.347656 -50.140625 5.421875 -50.703125 C 6.503906 -51.273438 7.796875 -51.5625 9.296875 -51.5625 C 10.804688 -51.5625 12.101562 -51.273438 13.1875 -50.703125 C 14.269531 -50.140625 14.8125 -49.320312 14.8125 -48.25 L 14.8125 -30.96875 L 28.84375 -30.96875 L 28.84375 -48.25 C 28.84375 -49.320312 29.382812 -50.140625 30.46875 -50.703125 C 31.550781 -51.273438 32.84375 -51.5625 34.34375 -51.5625 C 35.851562 -51.5625 37.144531 -51.273438 38.21875 -50.703125 C 39.300781 -50.140625 39.84375 -49.320312 39.84375 -48.25 L 39.84375 -3.390625 C 39.84375 -2.304688 39.300781 -1.46875 38.21875 -0.875 C 37.144531 -0.289062 35.851562 0 34.34375 0 C 32.84375 0 31.550781 -0.289062 30.46875 -0.875 C 29.382812 -1.46875 28.84375 -2.304688 28.84375 -3.390625 L 28.84375 -22.5 L 14.8125 -22.5 L 14.8125 -3.390625 C 14.8125 -2.304688 14.269531 -1.46875 13.1875 -0.875 C 12.101562 -0.289062 10.804688 0 9.296875 0 C 7.796875 0 6.503906 -0.289062 5.421875 -0.875 C 4.347656 -1.46875 3.8125 -2.304688 3.8125 -3.390625 Z M 3.8125 -3.390625 "/></g></g></g><g fill="#4d6620" fill-opacity="1"><g transform="translate(270.227274, 184.133856)"><g><path d="M 0.28125 -4.515625 C 0.28125 -4.648438 0.328125 -4.910156 0.421875 -5.296875 L 13.546875 -48.3125 C 13.921875 -49.488281 14.773438 -50.394531 16.109375 -51.03125 C 17.453125 -51.664062 18.992188 -51.984375 20.734375 -51.984375 C 22.472656 -51.984375 24.007812 -51.664062 25.34375 -51.03125 C 26.6875 -50.394531 27.550781 -49.488281 27.9375 -48.3125 L 41.125 -5.296875 C 41.21875 -4.910156 41.265625 -4.648438 41.265625 -4.515625 C 41.265625 -3.296875 40.5 -2.238281 38.96875 -1.34375 C 37.4375 -0.445312 35.847656 0 34.203125 0 C 32.179688 0 30.984375 -0.679688 30.609375 -2.046875 L 28.21875 -10.859375 L 13.328125 -10.859375 L 10.9375 -2.046875 C 10.5625 -0.679688 9.359375 0 7.328125 0 C 5.679688 0 4.09375 -0.445312 2.5625 -1.34375 C 1.039062 -2.238281 0.28125 -3.296875 0.28125 -4.515625 Z M 15.59375 -19.328125 L 25.890625 -19.328125 L 20.734375 -38.234375 Z M 15.59375 -19.328125 "/></g></g></g><g fill="#f0f4e7" fill-opacity="1"><g transform="translate(85.120457, 207.067302)"><g><path d="M 15.65625 -0.734375 C 15.632812 -0.765625 15.609375 -0.800781 15.578125 -0.84375 C 15.578125 -0.84375 15.59375 -0.820312 15.625 -0.78125 C 15.625 -0.78125 15.632812 -0.765625 15.65625 -0.734375 Z M 31.5 18.5 C 31.78125 18.632812 32.160156 18.882812 32.640625 19.25 C 33.117188 19.613281 33.503906 20.003906 33.796875 20.421875 C 34.097656 20.847656 34.125 21.269531 33.875 21.6875 C 33.707031 21.976562 33.476562 22.160156 33.1875 22.234375 C 32.90625 22.316406 32.617188 22.320312 32.328125 22.25 C 30.453125 21.875 28.191406 20.898438 25.546875 19.328125 C 22.910156 17.753906 20.363281 16.007812 17.90625 14.09375 C 15.457031 12.175781 13.59375 10.484375 12.3125 9.015625 C 10.820312 7.335938 9.570312 5.46875 8.5625 3.40625 C 7.414062 0.84375 7.328125 -1.523438 8.296875 -3.703125 C 9.265625 -5.890625 10.863281 -7.507812 13.09375 -8.5625 C 15.632812 -9.632812 18.132812 -9.691406 20.59375 -8.734375 C 23.050781 -7.785156 24.800781 -6.050781 25.84375 -3.53125 C 26.507812 -2 26.765625 -0.414062 26.609375 1.21875 C 26.367188 3.082031 25.554688 4.34375 24.171875 5 C 22.785156 5.664062 21.3125 5.5 19.75 4.5 C 18.925781 3.96875 18.195312 3.28125 17.5625 2.4375 C 16.925781 1.59375 16.289062 0.535156 15.65625 -0.734375 C 15.65625 -0.734375 15.632812 -0.757812 15.59375 -0.8125 C 15.5625 -0.875 15.503906 -0.96875 15.421875 -1.09375 C 15.347656 -1.226562 15.269531 -1.363281 15.1875 -1.5 C 14.96875 -1.863281 14.722656 -2.039062 14.453125 -2.03125 C 14.191406 -2.03125 13.9375 -1.890625 13.6875 -1.609375 C 12.445312 0.0546875 12.367188 1.882812 13.453125 3.875 C 14.535156 5.875 16.234375 7.851562 18.546875 9.8125 C 20.859375 11.769531 23.226562 13.523438 25.65625 15.078125 C 28.09375 16.628906 30.039062 17.769531 31.5 18.5 Z M 20.59375 -3.796875 C 20.195312 -3.972656 19.816406 -4.023438 19.453125 -3.953125 C 19.085938 -3.890625 18.800781 -3.804688 18.59375 -3.703125 C 18.382812 -3.597656 18.285156 -3.492188 18.296875 -3.390625 C 18.304688 -3.285156 18.398438 -3 18.578125 -2.53125 C 18.753906 -2.070312 19.023438 -1.601562 19.390625 -1.125 C 19.765625 -0.644531 20.132812 -0.289062 20.5 -0.0625 C 20.875 0.164062 21.253906 0.09375 21.640625 -0.28125 C 22.117188 -0.875 22.25 -1.535156 22.03125 -2.265625 C 21.8125 -2.992188 21.332031 -3.503906 20.59375 -3.796875 Z M 20.59375 -3.796875 "/></g></g></g><g clip-path="url(#d8e5f8f2a9)"><path fill="#df998f" d="M 132.980469 188.714844 L 132.980469 199.214844 C 127.183594 199.214844 122.480469 194.515625 122.480469 188.714844 Z M 132.980469 188.714844 " fill-opacity="1" fill-rule="nonzero"/></g><g clip-path="url(#1dec3a15a8)"><g clip-path="url(#d48b8b4660)"><path fill="#ffb339" d="M 213.921875 237.902344 L 226.511719 237.902344 L 226.511719 250.488281 L 213.921875 250.488281 Z M 213.921875 237.902344 " fill-opacity="1" fill-rule="nonzero"/></g></g><g clip-path="url(#49eb7eacfc)"><g clip-path="url(#0b06682b2d)"><path fill="#c6d8d3" d="M 217.515625 241.496094 L 222.917969 241.496094 L 222.917969 246.898438 L 217.515625 246.898438 Z M 217.515625 241.496094 " fill-opacity="1" fill-rule="nonzero"/></g></g><g fill="#6d962e" fill-opacity="1"><g transform="translate(225.889677, 207.918773)"><g><path d="M 4.71875 -9.78125 C 5.113281 -9.78125 5.503906 -9.75 5.890625 -9.6875 C 6.273438 -9.625 6.613281 -9.53125 6.90625 -9.40625 C 7.207031 -9.289062 7.453125 -9.148438 7.640625 -8.984375 C 7.828125 -8.828125 7.921875 -8.640625 7.921875 -8.421875 C 7.921875 -8.203125 7.863281 -8.023438 7.75 -7.890625 C 7.632812 -7.753906 7.476562 -7.6875 7.28125 -7.6875 C 7.15625 -7.6875 7.015625 -7.722656 6.859375 -7.796875 C 6.710938 -7.867188 6.539062 -7.941406 6.34375 -8.015625 C 6.144531 -8.085938 5.910156 -8.160156 5.640625 -8.234375 C 5.367188 -8.304688 5.046875 -8.34375 4.671875 -8.34375 C 4.429688 -8.34375 4.203125 -8.316406 3.984375 -8.265625 C 3.765625 -8.222656 3.570312 -8.15625 3.40625 -8.0625 C 3.238281 -7.96875 3.109375 -7.847656 3.015625 -7.703125 C 2.921875 -7.554688 2.875 -7.375 2.875 -7.15625 C 2.875 -6.789062 3 -6.515625 3.25 -6.328125 C 3.507812 -6.148438 3.832031 -6 4.21875 -5.875 C 4.601562 -5.75 5.019531 -5.628906 5.46875 -5.515625 C 5.925781 -5.398438 6.34375 -5.238281 6.71875 -5.03125 C 7.101562 -4.820312 7.425781 -4.53125 7.6875 -4.15625 C 7.945312 -3.789062 8.078125 -3.296875 8.078125 -2.671875 C 8.078125 -2.148438 7.976562 -1.707031 7.78125 -1.34375 C 7.582031 -0.988281 7.3125 -0.691406 6.96875 -0.453125 C 6.632812 -0.222656 6.25 -0.0625 5.8125 0.03125 C 5.375 0.132812 4.921875 0.1875 4.453125 0.1875 C 4.023438 0.1875 3.59375 0.144531 3.15625 0.0625 C 2.726562 -0.0195312 2.335938 -0.128906 1.984375 -0.265625 C 1.640625 -0.410156 1.359375 -0.582031 1.140625 -0.78125 C 0.929688 -0.976562 0.828125 -1.191406 0.828125 -1.421875 C 0.828125 -1.597656 0.882812 -1.753906 1 -1.890625 C 1.113281 -2.035156 1.28125 -2.109375 1.5 -2.109375 C 1.6875 -2.109375 1.863281 -2.0625 2.03125 -1.96875 C 2.207031 -1.882812 2.40625 -1.785156 2.625 -1.671875 C 2.84375 -1.566406 3.101562 -1.46875 3.40625 -1.375 C 3.707031 -1.289062 4.070312 -1.25 4.5 -1.25 C 4.75 -1.25 4.988281 -1.269531 5.21875 -1.3125 C 5.445312 -1.351562 5.648438 -1.429688 5.828125 -1.546875 C 6.015625 -1.660156 6.160156 -1.804688 6.265625 -1.984375 C 6.378906 -2.171875 6.4375 -2.398438 6.4375 -2.671875 C 6.4375 -3.035156 6.304688 -3.3125 6.046875 -3.5 C 5.796875 -3.695312 5.476562 -3.859375 5.09375 -3.984375 C 4.71875 -4.109375 4.300781 -4.234375 3.84375 -4.359375 C 3.382812 -4.484375 2.960938 -4.648438 2.578125 -4.859375 C 2.203125 -5.066406 1.882812 -5.347656 1.625 -5.703125 C 1.375 -6.066406 1.25 -6.554688 1.25 -7.171875 C 1.25 -7.628906 1.34375 -8.019531 1.53125 -8.34375 C 1.726562 -8.675781 1.984375 -8.945312 2.296875 -9.15625 C 2.617188 -9.363281 2.988281 -9.519531 3.40625 -9.625 C 3.820312 -9.726562 4.257812 -9.78125 4.71875 -9.78125 Z M 4.71875 -9.78125 "/></g></g></g><g fill="#6d962e" fill-opacity="1"><g transform="translate(233.228791, 207.918773)"><g><path d="M 8.6875 -2.078125 C 8.863281 -2.078125 9.007812 -2.007812 9.125 -1.875 C 9.238281 -1.75 9.296875 -1.582031 9.296875 -1.375 C 9.296875 -1.144531 9.1875 -0.929688 8.96875 -0.734375 C 8.75 -0.546875 8.46875 -0.378906 8.125 -0.234375 C 7.789062 -0.0976562 7.425781 0.00390625 7.03125 0.078125 C 6.632812 0.148438 6.257812 0.1875 5.90625 0.1875 C 5.1875 0.1875 4.53125 0.078125 3.9375 -0.140625 C 3.351562 -0.367188 2.847656 -0.695312 2.421875 -1.125 C 2.003906 -1.550781 1.675781 -2.070312 1.4375 -2.6875 C 1.207031 -3.3125 1.09375 -4.015625 1.09375 -4.796875 C 1.09375 -5.546875 1.1875 -6.222656 1.375 -6.828125 C 1.5625 -7.441406 1.832031 -7.96875 2.1875 -8.40625 C 2.550781 -8.84375 3.007812 -9.179688 3.5625 -9.421875 C 4.113281 -9.660156 4.753906 -9.78125 5.484375 -9.78125 C 6.203125 -9.78125 6.816406 -9.664062 7.328125 -9.4375 C 7.835938 -9.207031 8.257812 -8.894531 8.59375 -8.5 C 8.925781 -8.101562 9.171875 -7.640625 9.328125 -7.109375 C 9.484375 -6.585938 9.5625 -6.039062 9.5625 -5.46875 C 9.5625 -5.050781 9.441406 -4.722656 9.203125 -4.484375 C 8.972656 -4.253906 8.601562 -4.140625 8.09375 -4.140625 L 2.765625 -4.140625 C 2.867188 -3.179688 3.191406 -2.457031 3.734375 -1.96875 C 4.273438 -1.488281 5.003906 -1.25 5.921875 -1.25 C 6.296875 -1.25 6.625 -1.28125 6.90625 -1.34375 C 7.1875 -1.40625 7.4375 -1.488281 7.65625 -1.59375 C 7.863281 -1.695312 8.03125 -1.800781 8.15625 -1.90625 C 8.289062 -2.019531 8.46875 -2.078125 8.6875 -2.078125 Z M 5.484375 -8.34375 C 4.660156 -8.34375 4.023438 -8.09375 3.578125 -7.59375 C 3.140625 -7.09375 2.867188 -6.421875 2.765625 -5.578125 L 7.921875 -5.578125 C 7.878906 -6.421875 7.660156 -7.09375 7.265625 -7.59375 C 6.878906 -8.09375 6.285156 -8.34375 5.484375 -8.34375 Z M 5.484375 -8.34375 "/></g></g></g><g fill="#6d962e" fill-opacity="1"><g transform="translate(242.120191, 207.918773)"><g><path d="M 5.171875 -9.78125 C 5.515625 -9.78125 5.796875 -9.710938 6.015625 -9.578125 C 6.242188 -9.441406 6.359375 -9.207031 6.359375 -8.875 C 6.359375 -8.644531 6.296875 -8.445312 6.171875 -8.28125 C 6.054688 -8.113281 5.875 -8.03125 5.625 -8.03125 C 5.46875 -8.03125 5.328125 -8.054688 5.203125 -8.109375 C 5.078125 -8.160156 4.921875 -8.1875 4.734375 -8.1875 C 4.265625 -8.1875 3.867188 -7.9375 3.546875 -7.4375 C 3.222656 -6.9375 3.0625 -6.171875 3.0625 -5.140625 L 3.0625 -0.578125 C 3.0625 -0.316406 2.984375 -0.125 2.828125 0 C 2.671875 0.125 2.484375 0.1875 2.265625 0.1875 C 2.046875 0.1875 1.851562 0.125 1.6875 0 C 1.519531 -0.125 1.4375 -0.316406 1.4375 -0.578125 L 1.4375 -9.015625 C 1.4375 -9.265625 1.519531 -9.453125 1.6875 -9.578125 C 1.851562 -9.710938 2.046875 -9.78125 2.265625 -9.78125 C 2.484375 -9.78125 2.671875 -9.710938 2.828125 -9.578125 C 2.984375 -9.453125 3.0625 -9.265625 3.0625 -9.015625 L 3.0625 -8.4375 C 3.3125 -8.882812 3.617188 -9.21875 3.984375 -9.4375 C 4.347656 -9.664062 4.742188 -9.78125 5.171875 -9.78125 Z M 5.171875 -9.78125 "/></g></g></g><g fill="#6d962e" fill-opacity="1"><g transform="translate(247.1213, 207.918773)"><g><path d="M 4.90625 0.1875 C 4.6875 0.1875 4.488281 0.128906 4.3125 0.015625 C 4.132812 -0.0859375 3.988281 -0.289062 3.875 -0.59375 L 0.625 -8.859375 C 0.59375 -8.972656 0.578125 -9.078125 0.578125 -9.171875 C 0.578125 -9.367188 0.648438 -9.519531 0.796875 -9.625 C 0.941406 -9.726562 1.109375 -9.78125 1.296875 -9.78125 C 1.492188 -9.78125 1.679688 -9.726562 1.859375 -9.625 C 2.035156 -9.53125 2.175781 -9.367188 2.28125 -9.140625 L 4.890625 -2.453125 L 7.515625 -9.140625 C 7.617188 -9.367188 7.757812 -9.53125 7.9375 -9.625 C 8.113281 -9.726562 8.300781 -9.78125 8.5 -9.78125 C 8.6875 -9.78125 8.851562 -9.726562 9 -9.625 C 9.144531 -9.519531 9.21875 -9.367188 9.21875 -9.171875 C 9.21875 -9.078125 9.203125 -8.972656 9.171875 -8.859375 L 5.921875 -0.59375 C 5.804688 -0.289062 5.660156 -0.0859375 5.484375 0.015625 C 5.316406 0.128906 5.125 0.1875 4.90625 0.1875 Z M 4.90625 0.1875 "/></g></g></g><g fill="#6d962e" fill-opacity="1"><g transform="translate(255.131168, 207.918773)"><g><path d="M 1.5 -12.515625 C 1.5 -12.804688 1.601562 -13.0625 1.8125 -13.28125 C 2.019531 -13.5 2.269531 -13.609375 2.5625 -13.609375 C 2.863281 -13.609375 3.117188 -13.5 3.328125 -13.28125 C 3.546875 -13.0625 3.65625 -12.804688 3.65625 -12.515625 C 3.65625 -12.222656 3.546875 -11.972656 3.328125 -11.765625 C 3.117188 -11.554688 2.863281 -11.453125 2.5625 -11.453125 C 2.269531 -11.453125 2.019531 -11.554688 1.8125 -11.765625 C 1.601562 -11.972656 1.5 -12.222656 1.5 -12.515625 Z M 1.765625 -8.171875 L 1.125 -8.171875 C 0.632812 -8.171875 0.390625 -8.398438 0.390625 -8.859375 C 0.390625 -9.078125 0.445312 -9.253906 0.5625 -9.390625 C 0.6875 -9.523438 0.875 -9.59375 1.125 -9.59375 L 2.125 -9.59375 C 2.601562 -9.59375 2.929688 -9.507812 3.109375 -9.34375 C 3.296875 -9.175781 3.390625 -8.859375 3.390625 -8.390625 L 3.390625 -0.578125 C 3.390625 -0.316406 3.3125 -0.125 3.15625 0 C 3 0.125 2.8125 0.1875 2.59375 0.1875 C 2.375 0.1875 2.179688 0.125 2.015625 0 C 1.847656 -0.125 1.765625 -0.316406 1.765625 -0.578125 Z M 1.765625 -8.171875 "/></g></g></g><g fill="#6d962e" fill-opacity="1"><g transform="translate(258.177543, 207.918773)"><g><path d="M 4.921875 1.796875 C 4.796875 1.796875 4.695312 1.773438 4.625 1.734375 C 4.5625 1.691406 4.53125 1.597656 4.53125 1.453125 C 4.53125 1.421875 4.53125 1.378906 4.53125 1.328125 C 4.539062 1.285156 4.550781 1.234375 4.5625 1.171875 L 4.78125 0.140625 C 3.5625 -0.046875 2.640625 -0.578125 2.015625 -1.453125 C 1.398438 -2.328125 1.09375 -3.441406 1.09375 -4.796875 C 1.09375 -5.546875 1.1875 -6.222656 1.375 -6.828125 C 1.5625 -7.441406 1.835938 -7.96875 2.203125 -8.40625 C 2.578125 -8.84375 3.050781 -9.179688 3.625 -9.421875 C 4.195312 -9.660156 4.867188 -9.78125 5.640625 -9.78125 C 6.023438 -9.78125 6.429688 -9.722656 6.859375 -9.609375 C 7.285156 -9.503906 7.671875 -9.34375 8.015625 -9.125 C 8.367188 -8.914062 8.664062 -8.660156 8.90625 -8.359375 C 9.144531 -8.066406 9.265625 -7.734375 9.265625 -7.359375 C 9.265625 -7.117188 9.195312 -6.925781 9.0625 -6.78125 C 8.925781 -6.632812 8.75 -6.5625 8.53125 -6.5625 C 8.375 -6.5625 8.25 -6.585938 8.15625 -6.640625 C 8.070312 -6.703125 8 -6.773438 7.9375 -6.859375 C 7.875 -6.941406 7.8125 -7.035156 7.75 -7.140625 C 7.695312 -7.242188 7.628906 -7.347656 7.546875 -7.453125 C 7.367188 -7.679688 7.125 -7.882812 6.8125 -8.0625 C 6.5 -8.25 6.101562 -8.34375 5.625 -8.34375 C 4.625 -8.34375 3.890625 -8.019531 3.421875 -7.375 C 2.953125 -6.738281 2.71875 -5.878906 2.71875 -4.796875 C 2.71875 -3.703125 2.960938 -2.835938 3.453125 -2.203125 C 3.953125 -1.566406 4.660156 -1.25 5.578125 -1.25 C 6.085938 -1.25 6.519531 -1.351562 6.875 -1.5625 C 7.226562 -1.78125 7.492188 -2 7.671875 -2.21875 C 7.773438 -2.332031 7.847656 -2.441406 7.890625 -2.546875 C 7.941406 -2.660156 8 -2.757812 8.0625 -2.84375 C 8.132812 -2.925781 8.210938 -2.992188 8.296875 -3.046875 C 8.378906 -3.097656 8.492188 -3.125 8.640625 -3.125 C 8.859375 -3.125 9.035156 -3.050781 9.171875 -2.90625 C 9.304688 -2.769531 9.375 -2.59375 9.375 -2.375 C 9.375 -2.019531 9.269531 -1.691406 9.0625 -1.390625 C 8.851562 -1.097656 8.582031 -0.835938 8.25 -0.609375 C 7.925781 -0.390625 7.566406 -0.210938 7.171875 -0.078125 C 6.773438 0.046875 6.390625 0.128906 6.015625 0.171875 L 5.90625 0.765625 C 6.425781 0.796875 6.796875 0.9375 7.015625 1.1875 C 7.234375 1.445312 7.34375 1.753906 7.34375 2.109375 C 7.34375 2.609375 7.175781 3.003906 6.84375 3.296875 C 6.519531 3.585938 6.0625 3.734375 5.46875 3.734375 C 5.300781 3.734375 5.125 3.71875 4.9375 3.6875 C 4.757812 3.65625 4.597656 3.601562 4.453125 3.53125 C 4.304688 3.46875 4.1875 3.382812 4.09375 3.28125 C 4.007812 3.1875 3.96875 3.070312 3.96875 2.9375 C 3.96875 2.738281 4.019531 2.582031 4.125 2.46875 C 4.226562 2.363281 4.347656 2.3125 4.484375 2.3125 C 4.554688 2.3125 4.625 2.320312 4.6875 2.34375 C 4.757812 2.375 4.828125 2.410156 4.890625 2.453125 C 4.960938 2.492188 5.039062 2.523438 5.125 2.546875 C 5.21875 2.578125 5.335938 2.59375 5.484375 2.59375 C 5.660156 2.59375 5.804688 2.5625 5.921875 2.5 C 6.035156 2.445312 6.09375 2.34375 6.09375 2.1875 C 6.09375 1.925781 5.863281 1.796875 5.40625 1.796875 Z M 4.921875 1.796875 "/></g></g></g><g fill="#6d962e" fill-opacity="1"><g transform="translate(266.35988, 207.918773)"><g><path d="M 5.484375 0.1875 C 4.753906 0.1875 4.113281 0.0703125 3.5625 -0.15625 C 3.007812 -0.394531 2.550781 -0.734375 2.1875 -1.171875 C 1.832031 -1.617188 1.5625 -2.148438 1.375 -2.765625 C 1.1875 -3.378906 1.09375 -4.054688 1.09375 -4.796875 C 1.09375 -5.546875 1.1875 -6.222656 1.375 -6.828125 C 1.5625 -7.441406 1.832031 -7.96875 2.1875 -8.40625 C 2.550781 -8.84375 3.007812 -9.179688 3.5625 -9.421875 C 4.113281 -9.660156 4.753906 -9.78125 5.484375 -9.78125 C 6.210938 -9.78125 6.847656 -9.660156 7.390625 -9.421875 C 7.941406 -9.179688 8.398438 -8.84375 8.765625 -8.40625 C 9.128906 -7.96875 9.40625 -7.441406 9.59375 -6.828125 C 9.78125 -6.222656 9.875 -5.546875 9.875 -4.796875 C 9.875 -4.054688 9.78125 -3.378906 9.59375 -2.765625 C 9.40625 -2.148438 9.128906 -1.617188 8.765625 -1.171875 C 8.398438 -0.734375 7.941406 -0.394531 7.390625 -0.15625 C 6.847656 0.0703125 6.210938 0.1875 5.484375 0.1875 Z M 5.484375 -8.34375 C 4.546875 -8.34375 3.847656 -8.019531 3.390625 -7.375 C 2.941406 -6.738281 2.71875 -5.878906 2.71875 -4.796875 C 2.71875 -3.703125 2.941406 -2.835938 3.390625 -2.203125 C 3.847656 -1.566406 4.546875 -1.25 5.484375 -1.25 C 6.410156 -1.25 7.101562 -1.566406 7.5625 -2.203125 C 8.019531 -2.835938 8.25 -3.703125 8.25 -4.796875 C 8.25 -5.878906 8.019531 -6.738281 7.5625 -7.375 C 7.101562 -8.019531 6.410156 -8.34375 5.484375 -8.34375 Z M 5.484375 -8.34375 "/></g></g></g><g fill="#6d962e" fill-opacity="1"><g transform="translate(275.538738, 207.918773)"><g><path d="M 4.71875 -9.78125 C 5.113281 -9.78125 5.503906 -9.75 5.890625 -9.6875 C 6.273438 -9.625 6.613281 -9.53125 6.90625 -9.40625 C 7.207031 -9.289062 7.453125 -9.148438 7.640625 -8.984375 C 7.828125 -8.828125 7.921875 -8.640625 7.921875 -8.421875 C 7.921875 -8.203125 7.863281 -8.023438 7.75 -7.890625 C 7.632812 -7.753906 7.476562 -7.6875 7.28125 -7.6875 C 7.15625 -7.6875 7.015625 -7.722656 6.859375 -7.796875 C 6.710938 -7.867188 6.539062 -7.941406 6.34375 -8.015625 C 6.144531 -8.085938 5.910156 -8.160156 5.640625 -8.234375 C 5.367188 -8.304688 5.046875 -8.34375 4.671875 -8.34375 C 4.429688 -8.34375 4.203125 -8.316406 3.984375 -8.265625 C 3.765625 -8.222656 3.570312 -8.15625 3.40625 -8.0625 C 3.238281 -7.96875 3.109375 -7.847656 3.015625 -7.703125 C 2.921875 -7.554688 2.875 -7.375 2.875 -7.15625 C 2.875 -6.789062 3 -6.515625 3.25 -6.328125 C 3.507812 -6.148438 3.832031 -6 4.21875 -5.875 C 4.601562 -5.75 5.019531 -5.628906 5.46875 -5.515625 C 5.925781 -5.398438 6.34375 -5.238281 6.71875 -5.03125 C 7.101562 -4.820312 7.425781 -4.53125 7.6875 -4.15625 C 7.945312 -3.789062 8.078125 -3.296875 8.078125 -2.671875 C 8.078125 -2.148438 7.976562 -1.707031 7.78125 -1.34375 C 7.582031 -0.988281 7.3125 -0.691406 6.96875 -0.453125 C 6.632812 -0.222656 6.25 -0.0625 5.8125 0.03125 C 5.375 0.132812 4.921875 0.1875 4.453125 0.1875 C 4.023438 0.1875 3.59375 0.144531 3.15625 0.0625 C 2.726562 -0.0195312 2.335938 -0.128906 1.984375 -0.265625 C 1.640625 -0.410156 1.359375 -0.582031 1.140625 -0.78125 C 0.929688 -0.976562 0.828125 -1.191406 0.828125 -1.421875 C 0.828125 -1.597656 0.882812 -1.753906 1 -1.890625 C 1.113281 -2.035156 1.28125 -2.109375 1.5 -2.109375 C 1.6875 -2.109375 1.863281 -2.0625 2.03125 -1.96875 C 2.207031 -1.882812 2.40625 -1.785156 2.625 -1.671875 C 2.84375 -1.566406 3.101562 -1.46875 3.40625 -1.375 C 3.707031 -1.289062 4.070312 -1.25 4.5 -1.25 C 4.75 -1.25 4.988281 -1.269531 5.21875 -1.3125 C 5.445312 -1.351562 5.648438 -1.429688 5.828125 -1.546875 C 6.015625 -1.660156 6.160156 -1.804688 6.265625 -1.984375 C 6.378906 -2.171875 6.4375 -2.398438 6.4375 -2.671875 C 6.4375 -3.035156 6.304688 -3.3125 6.046875 -3.5 C 5.796875 -3.695312 5.476562 -3.859375 5.09375 -3.984375 C 4.71875 -4.109375 4.300781 -4.234375 3.84375 -4.359375 C 3.382812 -4.484375 2.960938 -4.648438 2.578125 -4.859375 C 2.203125 -5.066406 1.882812 -5.347656 1.625 -5.703125 C 1.375 -6.066406 1.25 -6.554688 1.25 -7.171875 C 1.25 -7.628906 1.34375 -8.019531 1.53125 -8.34375 C 1.726562 -8.675781 1.984375 -8.945312 2.296875 -9.15625 C 2.617188 -9.363281 2.988281 -9.519531 3.40625 -9.625 C 3.820312 -9.726562 4.257812 -9.78125 4.71875 -9.78125 Z M 4.71875 -9.78125 "/></g></g></g><g fill="#6d962e" fill-opacity="1"><g transform="translate(282.877851, 207.918773)"><g/></g></g><g fill="#6d962e" fill-opacity="1"><g transform="translate(287.035734, 207.918773)"><g><path d="M 8.6875 -2.078125 C 8.863281 -2.078125 9.007812 -2.007812 9.125 -1.875 C 9.238281 -1.75 9.296875 -1.582031 9.296875 -1.375 C 9.296875 -1.144531 9.1875 -0.929688 8.96875 -0.734375 C 8.75 -0.546875 8.46875 -0.378906 8.125 -0.234375 C 7.789062 -0.0976562 7.425781 0.00390625 7.03125 0.078125 C 6.632812 0.148438 6.257812 0.1875 5.90625 0.1875 C 5.1875 0.1875 4.53125 0.078125 3.9375 -0.140625 C 3.351562 -0.367188 2.847656 -0.695312 2.421875 -1.125 C 2.003906 -1.550781 1.675781 -2.070312 1.4375 -2.6875 C 1.207031 -3.3125 1.09375 -4.015625 1.09375 -4.796875 C 1.09375 -5.546875 1.1875 -6.222656 1.375 -6.828125 C 1.5625 -7.441406 1.832031 -7.96875 2.1875 -8.40625 C 2.550781 -8.84375 3.007812 -9.179688 3.5625 -9.421875 C 4.113281 -9.660156 4.753906 -9.78125 5.484375 -9.78125 C 6.203125 -9.78125 6.816406 -9.664062 7.328125 -9.4375 C 7.835938 -9.207031 8.257812 -8.894531 8.59375 -8.5 C 8.925781 -8.101562 9.171875 -7.640625 9.328125 -7.109375 C 9.484375 -6.585938 9.5625 -6.039062 9.5625 -5.46875 C 9.5625 -5.050781 9.441406 -4.722656 9.203125 -4.484375 C 8.972656 -4.253906 8.601562 -4.140625 8.09375 -4.140625 L 2.765625 -4.140625 C 2.867188 -3.179688 3.191406 -2.457031 3.734375 -1.96875 C 4.273438 -1.488281 5.003906 -1.25 5.921875 -1.25 C 6.296875 -1.25 6.625 -1.28125 6.90625 -1.34375 C 7.1875 -1.40625 7.4375 -1.488281 7.65625 -1.59375 C 7.863281 -1.695312 8.03125 -1.800781 8.15625 -1.90625 C 8.289062 -2.019531 8.46875 -2.078125 8.6875 -2.078125 Z M 5.484375 -8.34375 C 4.660156 -8.34375 4.023438 -8.09375 3.578125 -7.59375 C 3.140625 -7.09375 2.867188 -6.421875 2.765625 -5.578125 L 7.921875 -5.578125 C 7.878906 -6.421875 7.660156 -7.09375 7.265625 -7.59375 C 6.878906 -8.09375 6.285156 -8.34375 5.484375 -8.34375 Z M 5.484375 -8.34375 "/></g></g></g><g fill="#6d962e" fill-opacity="1"><g transform="translate(295.927133, 207.918773)"><g><path d="M 5.71875 -9.78125 C 6.3125 -9.78125 6.832031 -9.640625 7.28125 -9.359375 C 7.738281 -9.078125 8.078125 -8.660156 8.296875 -8.109375 C 8.628906 -8.660156 9.054688 -9.078125 9.578125 -9.359375 C 10.109375 -9.640625 10.6875 -9.78125 11.3125 -9.78125 C 12.226562 -9.78125 12.976562 -9.515625 13.5625 -8.984375 C 14.15625 -8.453125 14.453125 -7.644531 14.453125 -6.5625 L 14.453125 -0.578125 C 14.453125 -0.316406 14.367188 -0.125 14.203125 0 C 14.046875 0.125 13.863281 0.1875 13.65625 0.1875 C 13.4375 0.1875 13.242188 0.125 13.078125 0 C 12.910156 -0.125 12.828125 -0.316406 12.828125 -0.578125 L 12.828125 -6.578125 C 12.828125 -7.191406 12.65625 -7.640625 12.3125 -7.921875 C 11.976562 -8.203125 11.582031 -8.34375 11.125 -8.34375 C 10.425781 -8.34375 9.859375 -8.078125 9.421875 -7.546875 C 8.984375 -7.015625 8.765625 -6.253906 8.765625 -5.265625 L 8.765625 -0.578125 C 8.765625 -0.316406 8.679688 -0.125 8.515625 0 C 8.359375 0.125 8.171875 0.1875 7.953125 0.1875 C 7.734375 0.1875 7.539062 0.125 7.375 0 C 7.207031 -0.125 7.125 -0.316406 7.125 -0.578125 L 7.125 -6.515625 C 7.125 -7.140625 6.972656 -7.597656 6.671875 -7.890625 C 6.378906 -8.191406 5.988281 -8.34375 5.5 -8.34375 C 5.175781 -8.34375 4.863281 -8.273438 4.5625 -8.140625 C 4.269531 -8.003906 4.015625 -7.804688 3.796875 -7.546875 C 3.578125 -7.285156 3.398438 -6.960938 3.265625 -6.578125 C 3.128906 -6.191406 3.0625 -5.75 3.0625 -5.25 L 3.0625 -0.578125 C 3.0625 -0.316406 2.984375 -0.125 2.828125 0 C 2.671875 0.125 2.484375 0.1875 2.265625 0.1875 C 2.046875 0.1875 1.851562 0.125 1.6875 0 C 1.519531 -0.125 1.4375 -0.316406 1.4375 -0.578125 L 1.4375 -9.015625 C 1.4375 -9.265625 1.519531 -9.453125 1.6875 -9.578125 C 1.851562 -9.710938 2.046875 -9.78125 2.265625 -9.78125 C 2.484375 -9.78125 2.671875 -9.710938 2.828125 -9.578125 C 2.984375 -9.453125 3.0625 -9.265625 3.0625 -9.015625 L 3.0625 -8.265625 C 3.675781 -9.273438 4.5625 -9.78125 5.71875 -9.78125 Z M 5.71875 -9.78125 "/></g></g></g><g fill="#6d962e" fill-opacity="1"><g transform="translate(225.889677, 225.173186)"><g><path d="M 3.0625 -0.578125 C 3.0625 -0.316406 2.984375 -0.125 2.828125 0 C 2.671875 0.125 2.484375 0.1875 2.265625 0.1875 C 2.046875 0.1875 1.851562 0.125 1.6875 0 C 1.519531 -0.125 1.4375 -0.316406 1.4375 -0.578125 L 1.4375 -9.015625 C 1.4375 -9.265625 1.519531 -9.453125 1.6875 -9.578125 C 1.851562 -9.710938 2.046875 -9.78125 2.265625 -9.78125 C 2.484375 -9.78125 2.671875 -9.710938 2.828125 -9.578125 C 2.984375 -9.453125 3.0625 -9.265625 3.0625 -9.015625 L 3.0625 -8.203125 C 3.78125 -9.253906 4.789062 -9.78125 6.09375 -9.78125 C 7.019531 -9.78125 7.75 -9.503906 8.28125 -8.953125 C 8.820312 -8.398438 9.09375 -7.519531 9.09375 -6.3125 L 9.09375 -0.578125 C 9.09375 -0.316406 9.007812 -0.125 8.84375 0 C 8.6875 0.125 8.5 0.1875 8.28125 0.1875 C 8.0625 0.1875 7.867188 0.125 7.703125 0 C 7.535156 -0.125 7.453125 -0.316406 7.453125 -0.578125 L 7.453125 -6.28125 C 7.453125 -6.988281 7.28125 -7.507812 6.9375 -7.84375 C 6.601562 -8.175781 6.164062 -8.34375 5.625 -8.34375 C 4.875 -8.34375 4.257812 -8.046875 3.78125 -7.453125 C 3.300781 -6.867188 3.0625 -5.976562 3.0625 -4.78125 Z M 3.0625 -0.578125 "/></g></g></g><g fill="#6d962e" fill-opacity="1"><g transform="translate(234.627759, 225.173186)"><g><path d="M 7.453125 -1.4375 C 7.140625 -0.894531 6.726562 -0.488281 6.21875 -0.21875 C 5.71875 0.0507812 5.15625 0.1875 4.53125 0.1875 C 3.570312 0.1875 2.816406 -0.078125 2.265625 -0.609375 C 1.710938 -1.148438 1.4375 -2.039062 1.4375 -3.28125 L 1.4375 -9.015625 C 1.4375 -9.265625 1.519531 -9.453125 1.6875 -9.578125 C 1.851562 -9.710938 2.046875 -9.78125 2.265625 -9.78125 C 2.484375 -9.78125 2.671875 -9.710938 2.828125 -9.578125 C 2.984375 -9.453125 3.0625 -9.265625 3.0625 -9.015625 L 3.0625 -3.3125 C 3.0625 -2.601562 3.226562 -2.082031 3.5625 -1.75 C 3.894531 -1.414062 4.332031 -1.25 4.875 -1.25 C 5.625 -1.25 6.238281 -1.550781 6.71875 -2.15625 C 7.207031 -2.757812 7.453125 -3.625 7.453125 -4.75 L 7.453125 -9.015625 C 7.453125 -9.265625 7.535156 -9.453125 7.703125 -9.578125 C 7.867188 -9.710938 8.0625 -9.78125 8.28125 -9.78125 C 8.5 -9.78125 8.6875 -9.710938 8.84375 -9.578125 C 9.007812 -9.453125 9.09375 -9.265625 9.09375 -9.015625 L 9.09375 -3.453125 C 9.09375 -2.960938 9.097656 -2.554688 9.109375 -2.234375 C 9.128906 -1.910156 9.15625 -1.632812 9.1875 -1.40625 C 9.21875 -1.1875 9.242188 -1 9.265625 -0.84375 C 9.285156 -0.695312 9.296875 -0.5625 9.296875 -0.4375 C 9.296875 -0.25 9.226562 -0.0976562 9.09375 0.015625 C 8.957031 0.128906 8.78125 0.1875 8.5625 0.1875 C 8.195312 0.1875 7.925781 0.0625 7.75 -0.1875 C 7.582031 -0.445312 7.484375 -0.863281 7.453125 -1.4375 Z M 7.453125 -1.4375 "/></g></g></g><g fill="#6d962e" fill-opacity="1"><g transform="translate(243.365841, 225.173186)"><g><path d="M 1.046875 -8.140625 C 0.554688 -8.140625 0.3125 -8.378906 0.3125 -8.859375 C 0.3125 -9.078125 0.367188 -9.253906 0.484375 -9.390625 C 0.609375 -9.523438 0.796875 -9.59375 1.046875 -9.59375 L 1.859375 -9.59375 L 1.859375 -12 C 1.859375 -12.257812 1.941406 -12.453125 2.109375 -12.578125 C 2.273438 -12.703125 2.46875 -12.765625 2.6875 -12.765625 C 2.90625 -12.765625 3.09375 -12.703125 3.25 -12.578125 C 3.40625 -12.453125 3.484375 -12.257812 3.484375 -12 L 3.484375 -9.59375 L 5.546875 -9.59375 C 5.796875 -9.59375 5.976562 -9.523438 6.09375 -9.390625 C 6.21875 -9.253906 6.28125 -9.078125 6.28125 -8.859375 C 6.28125 -8.378906 6.035156 -8.140625 5.546875 -8.140625 L 3.484375 -8.140625 L 3.484375 -2.84375 C 3.484375 -2.25 3.59375 -1.835938 3.8125 -1.609375 C 4.039062 -1.378906 4.316406 -1.265625 4.640625 -1.265625 C 4.972656 -1.265625 5.21875 -1.304688 5.375 -1.390625 C 5.539062 -1.484375 5.710938 -1.53125 5.890625 -1.53125 C 6.054688 -1.53125 6.1875 -1.472656 6.28125 -1.359375 C 6.382812 -1.253906 6.4375 -1.109375 6.4375 -0.921875 C 6.4375 -0.566406 6.257812 -0.289062 5.90625 -0.09375 C 5.5625 0.09375 5.085938 0.1875 4.484375 0.1875 C 4.117188 0.1875 3.773438 0.132812 3.453125 0.03125 C 3.128906 -0.0625 2.847656 -0.226562 2.609375 -0.46875 C 2.378906 -0.707031 2.195312 -1.015625 2.0625 -1.390625 C 1.925781 -1.765625 1.859375 -2.222656 1.859375 -2.765625 L 1.859375 -8.140625 Z M 1.046875 -8.140625 "/></g></g></g><g fill="#6d962e" fill-opacity="1"><g transform="translate(248.386104, 225.173186)"><g><path d="M 5.171875 -9.78125 C 5.515625 -9.78125 5.796875 -9.710938 6.015625 -9.578125 C 6.242188 -9.441406 6.359375 -9.207031 6.359375 -8.875 C 6.359375 -8.644531 6.296875 -8.445312 6.171875 -8.28125 C 6.054688 -8.113281 5.875 -8.03125 5.625 -8.03125 C 5.46875 -8.03125 5.328125 -8.054688 5.203125 -8.109375 C 5.078125 -8.160156 4.921875 -8.1875 4.734375 -8.1875 C 4.265625 -8.1875 3.867188 -7.9375 3.546875 -7.4375 C 3.222656 -6.9375 3.0625 -6.171875 3.0625 -5.140625 L 3.0625 -0.578125 C 3.0625 -0.316406 2.984375 -0.125 2.828125 0 C 2.671875 0.125 2.484375 0.1875 2.265625 0.1875 C 2.046875 0.1875 1.851562 0.125 1.6875 0 C 1.519531 -0.125 1.4375 -0.316406 1.4375 -0.578125 L 1.4375 -9.015625 C 1.4375 -9.265625 1.519531 -9.453125 1.6875 -9.578125 C 1.851562 -9.710938 2.046875 -9.78125 2.265625 -9.78125 C 2.484375 -9.78125 2.671875 -9.710938 2.828125 -9.578125 C 2.984375 -9.453125 3.0625 -9.265625 3.0625 -9.015625 L 3.0625 -8.4375 C 3.3125 -8.882812 3.617188 -9.21875 3.984375 -9.4375 C 4.347656 -9.664062 4.742188 -9.78125 5.171875 -9.78125 Z M 5.171875 -9.78125 "/></g></g></g><g fill="#6d962e" fill-opacity="1"><g transform="translate(253.387213, 225.173186)"><g><path d="M 1.5 -12.515625 C 1.5 -12.804688 1.601562 -13.0625 1.8125 -13.28125 C 2.019531 -13.5 2.269531 -13.609375 2.5625 -13.609375 C 2.863281 -13.609375 3.117188 -13.5 3.328125 -13.28125 C 3.546875 -13.0625 3.65625 -12.804688 3.65625 -12.515625 C 3.65625 -12.222656 3.546875 -11.972656 3.328125 -11.765625 C 3.117188 -11.554688 2.863281 -11.453125 2.5625 -11.453125 C 2.269531 -11.453125 2.019531 -11.554688 1.8125 -11.765625 C 1.601562 -11.972656 1.5 -12.222656 1.5 -12.515625 Z M 1.765625 -8.171875 L 1.125 -8.171875 C 0.632812 -8.171875 0.390625 -8.398438 0.390625 -8.859375 C 0.390625 -9.078125 0.445312 -9.253906 0.5625 -9.390625 C 0.6875 -9.523438 0.875 -9.59375 1.125 -9.59375 L 2.125 -9.59375 C 2.601562 -9.59375 2.929688 -9.507812 3.109375 -9.34375 C 3.296875 -9.175781 3.390625 -8.859375 3.390625 -8.390625 L 3.390625 -0.578125 C 3.390625 -0.316406 3.3125 -0.125 3.15625 0 C 3 0.125 2.8125 0.1875 2.59375 0.1875 C 2.375 0.1875 2.179688 0.125 2.015625 0 C 1.847656 -0.125 1.765625 -0.316406 1.765625 -0.578125 Z M 1.765625 -8.171875 "/></g></g></g><g fill="#6d962e" fill-opacity="1"><g transform="translate(256.433588, 225.173186)"><g><path d="M 4.921875 1.796875 C 4.796875 1.796875 4.695312 1.773438 4.625 1.734375 C 4.5625 1.691406 4.53125 1.597656 4.53125 1.453125 C 4.53125 1.421875 4.53125 1.378906 4.53125 1.328125 C 4.539062 1.285156 4.550781 1.234375 4.5625 1.171875 L 4.78125 0.140625 C 3.5625 -0.046875 2.640625 -0.578125 2.015625 -1.453125 C 1.398438 -2.328125 1.09375 -3.441406 1.09375 -4.796875 C 1.09375 -5.546875 1.1875 -6.222656 1.375 -6.828125 C 1.5625 -7.441406 1.835938 -7.96875 2.203125 -8.40625 C 2.578125 -8.84375 3.050781 -9.179688 3.625 -9.421875 C 4.195312 -9.660156 4.867188 -9.78125 5.640625 -9.78125 C 6.023438 -9.78125 6.429688 -9.722656 6.859375 -9.609375 C 7.285156 -9.503906 7.671875 -9.34375 8.015625 -9.125 C 8.367188 -8.914062 8.664062 -8.660156 8.90625 -8.359375 C 9.144531 -8.066406 9.265625 -7.734375 9.265625 -7.359375 C 9.265625 -7.117188 9.195312 -6.925781 9.0625 -6.78125 C 8.925781 -6.632812 8.75 -6.5625 8.53125 -6.5625 C 8.375 -6.5625 8.25 -6.585938 8.15625 -6.640625 C 8.070312 -6.703125 8 -6.773438 7.9375 -6.859375 C 7.875 -6.941406 7.8125 -7.035156 7.75 -7.140625 C 7.695312 -7.242188 7.628906 -7.347656 7.546875 -7.453125 C 7.367188 -7.679688 7.125 -7.882812 6.8125 -8.0625 C 6.5 -8.25 6.101562 -8.34375 5.625 -8.34375 C 4.625 -8.34375 3.890625 -8.019531 3.421875 -7.375 C 2.953125 -6.738281 2.71875 -5.878906 2.71875 -4.796875 C 2.71875 -3.703125 2.960938 -2.835938 3.453125 -2.203125 C 3.953125 -1.566406 4.660156 -1.25 5.578125 -1.25 C 6.085938 -1.25 6.519531 -1.351562 6.875 -1.5625 C 7.226562 -1.78125 7.492188 -2 7.671875 -2.21875 C 7.773438 -2.332031 7.847656 -2.441406 7.890625 -2.546875 C 7.941406 -2.660156 8 -2.757812 8.0625 -2.84375 C 8.132812 -2.925781 8.210938 -2.992188 8.296875 -3.046875 C 8.378906 -3.097656 8.492188 -3.125 8.640625 -3.125 C 8.859375 -3.125 9.035156 -3.050781 9.171875 -2.90625 C 9.304688 -2.769531 9.375 -2.59375 9.375 -2.375 C 9.375 -2.019531 9.269531 -1.691406 9.0625 -1.390625 C 8.851562 -1.097656 8.582031 -0.835938 8.25 -0.609375 C 7.925781 -0.390625 7.566406 -0.210938 7.171875 -0.078125 C 6.773438 0.046875 6.390625 0.128906 6.015625 0.171875 L 5.90625 0.765625 C 6.425781 0.796875 6.796875 0.9375 7.015625 1.1875 C 7.234375 1.445312 7.34375 1.753906 7.34375 2.109375 C 7.34375 2.609375 7.175781 3.003906 6.84375 3.296875 C 6.519531 3.585938 6.0625 3.734375 5.46875 3.734375 C 5.300781 3.734375 5.125 3.71875 4.9375 3.6875 C 4.757812 3.65625 4.597656 3.601562 4.453125 3.53125 C 4.304688 3.46875 4.1875 3.382812 4.09375 3.28125 C 4.007812 3.1875 3.96875 3.070312 3.96875 2.9375 C 3.96875 2.738281 4.019531 2.582031 4.125 2.46875 C 4.226562 2.363281 4.347656 2.3125 4.484375 2.3125 C 4.554688 2.3125 4.625 2.320312 4.6875 2.34375 C 4.757812 2.375 4.828125 2.410156 4.890625 2.453125 C 4.960938 2.492188 5.039062 2.523438 5.125 2.546875 C 5.21875 2.578125 5.335938 2.59375 5.484375 2.59375 C 5.660156 2.59375 5.804688 2.5625 5.921875 2.5 C 6.035156 2.445312 6.09375 2.34375 6.09375 2.1875 C 6.09375 1.925781 5.863281 1.796875 5.40625 1.796875 Z M 4.921875 1.796875 "/></g></g></g><g fill="#6d962e" fill-opacity="1"><g transform="translate(264.615926, 225.173186)"><g><path d="M 8.5625 -0.4375 C 8.5625 -0.25 8.492188 -0.0976562 8.359375 0.015625 C 8.234375 0.128906 8.0625 0.1875 7.84375 0.1875 C 7.46875 0.1875 7.191406 0.0664062 7.015625 -0.171875 C 6.847656 -0.410156 6.753906 -0.820312 6.734375 -1.40625 C 6.335938 -0.863281 5.859375 -0.460938 5.296875 -0.203125 C 4.742188 0.0546875 4.1875 0.1875 3.625 0.1875 C 2.71875 0.1875 2.003906 -0.0507812 1.484375 -0.53125 C 0.960938 -1.007812 0.703125 -1.726562 0.703125 -2.6875 C 0.703125 -3.71875 1.046875 -4.503906 1.734375 -5.046875 C 2.421875 -5.585938 3.421875 -5.859375 4.734375 -5.859375 C 5.023438 -5.859375 5.335938 -5.835938 5.671875 -5.796875 C 6.003906 -5.765625 6.359375 -5.71875 6.734375 -5.65625 L 6.734375 -6.53125 C 6.734375 -7.144531 6.535156 -7.597656 6.140625 -7.890625 C 5.742188 -8.191406 5.273438 -8.34375 4.734375 -8.34375 C 4.242188 -8.34375 3.863281 -8.269531 3.59375 -8.125 C 3.332031 -7.976562 3.140625 -7.773438 3.015625 -7.515625 C 2.898438 -7.273438 2.757812 -7.113281 2.59375 -7.03125 C 2.4375 -6.957031 2.25 -6.921875 2.03125 -6.921875 C 1.8125 -6.921875 1.625 -6.984375 1.46875 -7.109375 C 1.320312 -7.234375 1.25 -7.40625 1.25 -7.625 C 1.25 -7.882812 1.34375 -8.140625 1.53125 -8.390625 C 1.726562 -8.640625 1.984375 -8.867188 2.296875 -9.078125 C 2.617188 -9.285156 2.988281 -9.453125 3.40625 -9.578125 C 3.832031 -9.710938 4.28125 -9.78125 4.75 -9.78125 C 5.238281 -9.78125 5.695312 -9.710938 6.125 -9.578125 C 6.5625 -9.453125 6.945312 -9.257812 7.28125 -9 C 7.613281 -8.738281 7.875 -8.40625 8.0625 -8 C 8.257812 -7.601562 8.359375 -7.128906 8.359375 -6.578125 L 8.359375 -3.453125 C 8.359375 -2.960938 8.367188 -2.554688 8.390625 -2.234375 C 8.410156 -1.910156 8.4375 -1.632812 8.46875 -1.40625 C 8.5 -1.1875 8.519531 -1 8.53125 -0.84375 C 8.550781 -0.695312 8.5625 -0.5625 8.5625 -0.4375 Z M 6.734375 -3.828125 C 6.734375 -3.992188 6.664062 -4.109375 6.53125 -4.171875 C 6.394531 -4.242188 6.242188 -4.289062 6.078125 -4.3125 C 5.898438 -4.34375 5.695312 -4.367188 5.46875 -4.390625 C 5.25 -4.410156 5.003906 -4.421875 4.734375 -4.421875 C 3.890625 -4.421875 3.28125 -4.273438 2.90625 -3.984375 C 2.53125 -3.691406 2.34375 -3.257812 2.34375 -2.6875 C 2.34375 -2.1875 2.472656 -1.820312 2.734375 -1.59375 C 2.992188 -1.363281 3.359375 -1.25 3.828125 -1.25 C 4.203125 -1.25 4.5625 -1.316406 4.90625 -1.453125 C 5.25 -1.585938 5.554688 -1.769531 5.828125 -2 C 6.097656 -2.238281 6.316406 -2.515625 6.484375 -2.828125 C 6.648438 -3.140625 6.734375 -3.472656 6.734375 -3.828125 Z M 3.6875 -13.28125 C 3.894531 -13.28125 4.097656 -13.242188 4.296875 -13.171875 C 4.492188 -13.097656 4.679688 -13.015625 4.859375 -12.921875 C 5.035156 -12.828125 5.207031 -12.742188 5.375 -12.671875 C 5.539062 -12.597656 5.6875 -12.5625 5.8125 -12.5625 C 5.9375 -12.5625 6.023438 -12.59375 6.078125 -12.65625 C 6.128906 -12.71875 6.1875 -12.804688 6.25 -12.921875 C 6.300781 -13.023438 6.363281 -13.109375 6.4375 -13.171875 C 6.519531 -13.242188 6.628906 -13.28125 6.765625 -13.28125 C 6.953125 -13.28125 7.117188 -13.222656 7.265625 -13.109375 C 7.410156 -13.003906 7.484375 -12.828125 7.484375 -12.578125 C 7.484375 -12.367188 7.429688 -12.1875 7.328125 -12.03125 C 7.234375 -11.875 7.113281 -11.738281 6.96875 -11.625 C 6.832031 -11.507812 6.675781 -11.414062 6.5 -11.34375 C 6.320312 -11.28125 6.15625 -11.25 6 -11.25 C 5.769531 -11.25 5.554688 -11.285156 5.359375 -11.359375 C 5.160156 -11.441406 4.972656 -11.523438 4.796875 -11.609375 C 4.617188 -11.703125 4.457031 -11.785156 4.3125 -11.859375 C 4.164062 -11.941406 4.019531 -11.984375 3.875 -11.984375 C 3.75 -11.984375 3.660156 -11.953125 3.609375 -11.890625 C 3.554688 -11.828125 3.5 -11.738281 3.4375 -11.625 C 3.382812 -11.519531 3.316406 -11.429688 3.234375 -11.359375 C 3.160156 -11.285156 3.054688 -11.25 2.921875 -11.25 C 2.742188 -11.25 2.578125 -11.300781 2.421875 -11.40625 C 2.273438 -11.519531 2.203125 -11.707031 2.203125 -11.96875 C 2.203125 -12.164062 2.25 -12.34375 2.34375 -12.5 C 2.445312 -12.664062 2.566406 -12.804688 2.703125 -12.921875 C 2.847656 -13.035156 3.007812 -13.125 3.1875 -13.1875 C 3.363281 -13.25 3.53125 -13.28125 3.6875 -13.28125 Z M 3.6875 -13.28125 "/></g></g></g><g fill="#6d962e" fill-opacity="1"><g transform="translate(272.625792, 225.173186)"><g><path d="M 5.484375 0.1875 C 4.753906 0.1875 4.113281 0.0703125 3.5625 -0.15625 C 3.007812 -0.394531 2.550781 -0.734375 2.1875 -1.171875 C 1.832031 -1.617188 1.5625 -2.148438 1.375 -2.765625 C 1.1875 -3.378906 1.09375 -4.054688 1.09375 -4.796875 C 1.09375 -5.546875 1.1875 -6.222656 1.375 -6.828125 C 1.5625 -7.441406 1.832031 -7.96875 2.1875 -8.40625 C 2.550781 -8.84375 3.007812 -9.179688 3.5625 -9.421875 C 4.113281 -9.660156 4.753906 -9.78125 5.484375 -9.78125 C 6.210938 -9.78125 6.847656 -9.660156 7.390625 -9.421875 C 7.941406 -9.179688 8.398438 -8.84375 8.765625 -8.40625 C 9.128906 -7.96875 9.40625 -7.441406 9.59375 -6.828125 C 9.78125 -6.222656 9.875 -5.546875 9.875 -4.796875 C 9.875 -4.054688 9.78125 -3.378906 9.59375 -2.765625 C 9.40625 -2.148438 9.128906 -1.617188 8.765625 -1.171875 C 8.398438 -0.734375 7.941406 -0.394531 7.390625 -0.15625 C 6.847656 0.0703125 6.210938 0.1875 5.484375 0.1875 Z M 5.484375 -8.34375 C 4.546875 -8.34375 3.847656 -8.019531 3.390625 -7.375 C 2.941406 -6.738281 2.71875 -5.878906 2.71875 -4.796875 C 2.71875 -3.703125 2.941406 -2.835938 3.390625 -2.203125 C 3.847656 -1.566406 4.546875 -1.25 5.484375 -1.25 C 6.410156 -1.25 7.101562 -1.566406 7.5625 -2.203125 C 8.019531 -2.835938 8.25 -3.703125 8.25 -4.796875 C 8.25 -5.878906 8.019531 -6.738281 7.5625 -7.375 C 7.101562 -8.019531 6.410156 -8.34375 5.484375 -8.34375 Z M 5.484375 -8.34375 "/></g></g></g></svg>